<svg xmlns="http://www.w3.org/2000/svg" viewBox="0 0 64 64"><defs><style>.cls-1{fill:#fff;opacity:0;}.cls-2{fill:#5414b3;}.cls-2,.cls-3,.cls-4,.cls-5{fill-rule:evenodd;}.cls-3{fill:#a0f;}.cls-4{fill:#d1864b;}.cls-5{fill:#ebb369;}.cls-6{fill:#abc0c9;}.cls-7{fill:#7b97a6;}</style></defs><title>Arrow</title><g id="Layer_2" data-name="Layer 2"><g id="Layer_2-2" data-name="Layer 2"><rect class="cls-1" width="64" height="64"/><path class="cls-2" d="M31.8,44.6l-2-8.08L15.89,50.39,18,58.56a1.25,1.25,0,0,0,2.09.58l10.7-10.71A4,4,0,0,0,31.8,44.6Z"/><path class="cls-3" d="M19.4,32.2l8.08,2L13.61,48.11,5.44,46.05A1.25,1.25,0,0,1,4.86,44l10.71-10.7A4,4,0,0,1,19.4,32.2Z"/><path class="cls-2" d="M23.37,33.2c-1.63,2.6-6.26,6.44-9.54,9.61a19.73,19.73,0,0,1-6.24,3.78l6,1.52L27.48,34.24Z"/><path class="cls-4" d="M46.23,17.78c1.36,1.36,2,2.9,1.5,3.44L17.49,51.44c-.53.54-2.07-.13-3.44-1.5s-2-2.9-1.5-3.44L42.79,16.28C43.32,15.74,44.86,16.41,46.23,17.78Z"/><path class="cls-5" d="M42.79,16.28c.53-.54,2.07.13,3.44,1.5a7.83,7.83,0,0,1,.82.95,130.55,130.55,0,0,1-10.16,11.1c-9.6,9.45-18.54,15.93-20,14.48-.38-.4-.18-1.34.52-2.68Z"/><path class="cls-3" d="M21.64,57.53l9.1-9.1A4,4,0,0,0,31.8,44.6l-.48-1.91c-.85-.62-2-.87-3.37.49-2.81,2.81-10.12,9.08-8.54,13A2,2,0,0,0,21.64,57.53Z"/><path class="cls-6" d="M57.56,4.57l-21.9,6.7A1.49,1.49,0,0,0,35.4,14l9.5,5.08L59.06,4.94A1.48,1.48,0,0,0,57.56,4.57Z"/><path class="cls-7" d="M52.73,28.34l6.7-21.9a1.48,1.48,0,0,0-.37-1.5L44.9,19.1,50,28.6A1.49,1.49,0,0,0,52.73,28.34Z"/><path class="cls-7" d="M35.66,11.27A1.49,1.49,0,0,0,35.4,14l9.5,5.08,2.67-2.67c-1.92-.33-9.28-1.7-11.11-3.21-1.15-1-.78-1.67-.21-2.13Z"/></g></g></svg>