<svg xmlns="http://www.w3.org/2000/svg" viewBox="0 0 64 64"><defs><style>.cls-1{fill:#fff;opacity:0;}.cls-2{fill:#7b97a6;}.cls-2,.cls-3,.cls-4,.cls-5{fill-rule:evenodd;}.cls-3{fill:#d1864b;}.cls-4{fill:#ebb369;}.cls-5{fill:#abc0c9;}</style></defs><title>Axe</title><g id="Layer_2" data-name="Layer 2"><g id="Layer_2-2" data-name="Layer 2"><rect class="cls-1" width="64" height="64"/><path class="cls-2" d="M26.1,9.64s9.19,4.13,28.05,4a3.8,3.8,0,0,1,3.75,3.7c-.17,5.52-2,16.25-12.3,26.59-1.32,1.33-3.74.88-5-.88-3-4.26-9.08-11.14-17.69-13.18Z"/><path class="cls-3" d="M30.09,5.14c2.28.86,3.85,2.29,3.51,3.18L14.4,58.81c-.34.9-2.46.92-4.74,0s-3.85-2.29-3.51-3.18L25.34,5.19C25.68,4.29,27.81,4.27,30.09,5.14Z"/><path class="cls-4" d="M25.34,5.19c.34-.9,2.47-.92,4.75-.05a9.55,9.55,0,0,1,1.44.67,165.75,165.75,0,0,1-6,18.05c-6.17,15.86-13.12,28-15.53,27-.65-.25-.9-1.45-.79-3.36Z"/><path class="cls-5" d="M54.15,13.61a102.6,102.6,0,0,1-17.36-1.22,42.22,42.22,0,0,0-4.95,13.34,5.64,5.64,0,0,0,2.41,5.85,25.18,25.18,0,0,0,13.78,4,14.59,14.59,0,0,1,3.84.54,37.47,37.47,0,0,0,6-18.81A3.8,3.8,0,0,0,54.15,13.61Z"/></g></g></svg>