<?xml version="1.0" encoding="UTF-8"?>
<svg id="Layer_2" data-name="Layer 2" xmlns="http://www.w3.org/2000/svg" viewBox="0 0 64 64">
  <defs>
    <style>
      .cls-1 {
        fill: #fff;
      }

      .cls-2 {
        fill: #fec92b;
      }

      .cls-3 {
        fill: #f15a24;
      }

      .cls-4 {
        fill: #39b54a;
      }

      .cls-5 {
        fill: #ff8ca9;
      }

      .cls-6 {
        fill: #fc9504;
      }

      .cls-7 {
        fill: #fdaf18;
      }

      .cls-8 {
        fill: #1a1a1a;
        opacity: 0;
      }

      .cls-9 {
        fill: #a0f;
      }
    </style>
  </defs>
  <g id="Rough">
    <g>
      <rect class="cls-8" width="64" height="64"/>
      <g>
        <rect class="cls-5" x="16.53" y="9.25" width="16.16" height="23.15" rx="4.22" ry="4.22" transform="translate(-2.83 3.9) rotate(-8.56)"/>
        <rect class="cls-2" x="29.43" y="5.11" width="16.16" height="23.15" rx="4.22" ry="4.22" transform="translate(2.81 -5.24) rotate(8.31)"/>
        <rect class="cls-4" x="36.14" y="8.52" width="5.39" height="26.32" rx="2.69" ry="2.69" transform="translate(-4.27 10.72) rotate(-14.9)"/>
        <rect class="cls-9" x="17.05" y="13.02" width="5.39" height="26.32" rx="2.69" ry="2.69" transform="translate(-11.58 16.47) rotate(-35.76)"/>
        <circle class="cls-9" cx="45.82" cy="19.78" r="5.88"/>
        <circle class="cls-1" cx="25.21" cy="21.68" r="7.81"/>
        <path class="cls-7" d="M12.76,38.67l-.99,14.29c-.03,.45,.22,.88,.64,1.06,2.98,1.29,15.3,6.1,31.44,5.26l1.96-17.3c-16.65-2.61-33.05-3.31-33.05-3.31Z"/>
        <path class="cls-6" d="M53.49,38.67l-7.67,3.31-1.96,17.3s6.22-2.85,10.39-6.66c.25-.22,.37-.55,.34-.88l-1.1-13.06Z"/>
        <path class="cls-3" d="M53,19.72l-2.17,3.01-2.56-2.26-.35-.31-2.3-2.03c-.22-.19-.49-.28-.76-.27l.96,24.12,7.67-3.31,1.45-18.25c.07-1.08-1.31-1.57-1.94-.7Z"/>
        <path class="cls-6" d="M44.85,17.86c-.27,.01-.53,.13-.73,.34l-.68,.72-1.55,1.64h0s-4.13,4.37-4.13,4.37l-5.06-5.87c-.44-.51-1.24-.49-1.66,.04l-4.73,6-4.75-5.8c-.48-.59-1.4-.51-1.77,.16l-3.23,5.8-5.82-4.17c-.79-.56-1.86,.12-1.68,1.07l3.69,16.52s16.4,.69,33.05,3.31l-.96-24.12Z"/>
        <g>
          <path class="cls-3" d="M37.27,30.36l-6.39,4.59c-.45,.33-.34,1.03,.2,1.19l4.97,1.47c.37,.11,.76-.11,.85-.49l1.42-6.06c.14-.6-.54-1.06-1.05-.7Z"/>
          <path class="cls-3" d="M18.77,37.25l4.97-1.47c.54-.16,.65-.86,.2-1.19l-6.39-4.59c-.5-.36-1.19,.09-1.05,.7l1.42,6.06c.09,.38,.47,.6,.85,.49Z"/>
          <path class="cls-3" d="M36.68,43.73c-2.7,.97-6.01,1.41-9.52,1.12-3.52-.29-6.7-1.27-9.21-2.67-.55-.31-1.19,.25-.95,.83,1.57,3.91,5.23,6.81,9.72,7.19,4.48,.37,8.58-1.88,10.77-5.48,.33-.54-.21-1.19-.8-.98Z"/>
        </g>
      </g>
    </g>
  </g>
</svg>