<?xml version="1.0" encoding="UTF-8"?>
<svg id="Layer_2" data-name="Layer 2" xmlns="http://www.w3.org/2000/svg" viewBox="0 0 64 64">
  <defs>
    <style>
      .cls-1 {
        fill: #fec92b;
      }

      .cls-2 {
        fill: #476475;
      }

      .cls-3 {
        fill: #324652;
      }

      .cls-4 {
        fill: #1a1a1a;
        opacity: 0;
      }
    </style>
  </defs>
  <g id="Rough">
    <g>
      <rect class="cls-4" width="64" height="64"/>
      <g>
        <path class="cls-2" d="M57.93,58.98c1.9-6.37,2.01-13.09,.67-19.41-.26-1.24-1.6-1.93-2.77-1.45-7.82,3.22-17.52,1.72-24.6-5.35s-8.57-16.78-5.35-24.6c.48-1.17-.21-2.51-1.45-2.77-6.33-1.34-13.04-1.23-19.41,.67-.73,.22-.68,1.31,.08,1.42,2.05,.31,3.48,1.38,4.29,3.59,.74,2.02-.8,4.92-2.38,6.93-.3,.39-.14,.94,.32,1.12,2.27,.85,4.06,2.46,4.84,4.63,.97,2.69,.17,5.69-1.91,8.05-.37,.42-.16,1.08,.39,1.2,3.08,.67,4.6,1.66,5.63,4.58,.99,2.79-.09,7.17-2.48,11.64-.34,.63,.35,1.32,.98,.98,4.47-2.39,8.86-3.47,11.64-2.48,2.91,1.04,3.9,2.55,4.58,5.63,.12,.55,.78,.76,1.2,.39,2.35-2.08,5.35-2.87,8.05-1.91,2.17,.78,3.78,2.57,4.63,4.84,.17,.46,.73,.62,1.12,.32,2.01-1.59,4.91-3.12,6.93-2.38,2.21,.8,3.28,2.24,3.59,4.29,.11,.76,1.2,.81,1.42,.08Z"/>
        <path class="cls-3" d="M37.47,34.21c.16-.42-.28-.81-.68-.6-.65,.34-1.29,.61-1.91,.81-.3-1.09-.99-2.26-2.01-3.28s-2.2-1.71-3.28-2.01c.2-.62,.47-1.26,.81-1.91,.21-.4-.18-.84-.6-.68-1.32,.49-2.62,1.31-3.76,2.45-3.31,3.31-5.5,6.47-1.49,10.48s7.17,1.81,10.48-1.49c1.14-1.14,1.96-2.44,2.45-3.76Z"/>
        <path class="cls-2" d="M40.45,31.81c.17-.46-.3-.87-.73-.65-.7,.37-1.39,.66-2.06,.87-.32-1.17-1.06-2.43-2.17-3.53s-2.37-1.84-3.53-2.17c.21-.67,.5-1.36,.87-2.06,.23-.43-.19-.9-.65-.73-1.42,.53-2.82,1.41-4.05,2.64-3.56,3.56-5.92,6.97-1.6,11.28s7.72,1.95,11.28-1.6c1.22-1.22,2.11-2.63,2.64-4.05Z"/>
        <ellipse class="cls-1" cx="32.22" cy="35.64" rx="1.67" ry="1.07" transform="translate(-15.76 33.22) rotate(-45)"/>
        <ellipse class="cls-1" cx="28.36" cy="31.78" rx="1.67" ry="1.07" transform="translate(-14.17 29.36) rotate(-45)"/>
      </g>
    </g>
  </g>
</svg>