<?xml version="1.0" encoding="UTF-8"?>
<svg id="Layer_2" data-name="Layer 2" xmlns="http://www.w3.org/2000/svg" viewBox="0 0 64 64">
  <defs>
    <style>
      .cls-1 {
        fill: #ffdfb5;
      }

      .cls-2 {
        fill: #eba969;
      }

      .cls-3 {
        fill: #bb5938;
      }

      .cls-4 {
        fill: #d1774b;
      }

      .cls-5 {
        fill: #1a1a1a;
        opacity: 0;
      }
    </style>
  </defs>
  <g id="Rough">
    <g>
      <rect class="cls-5" width="64" height="64"/>
      <g>
        <path class="cls-4" d="M21.16,57.43s-10.59-2.53-14.88-13.82l9.79-1.51,6.05,5.65-.95,9.68Z"/>
        <path class="cls-2" d="M21.3,58.41l5.38-16.98-4.26-4.26-16.79,5.32c-.32,.1-.59,.31-.76,.59-.59,.98-.42,1.91,.14,3,.16,.31,.52,.47,.86,.36l5.17-1.66c.27-.09,.44,.29,.19,.43-1.32,.75-3.03,1.73-4.35,2.5-.35,.21-.46,.66-.24,1.01,0,0,0,0,0,0,.95,1.49,1.95,3.38,3.52,4.96,.59,.59,1.22,1.11,1.86,1.57,.3,.21,.71,.17,.95-.1l5.3-5.86c.19-.21,.52,.03,.38,.28-1.01,1.73-2.53,4.32-3.85,6.63-.19,.34-.08,.77,.25,.97,.13,.08,.25,.15,.37,.23,.06,.04,.12,.08,.18,.11,.33,.21,.78,.12,.99-.21l2.21-3.37c.16-.24,.52-.05,.42,.22-.47,1.2-1.07,2.73-1.57,4.03-.15,.39,.06,.82,.45,.94,.44,.14,1,.23,1.81,.25,.62,.02,1.18-.38,1.37-.97Z"/>
        <g>
          <path class="cls-3" d="M24.69,33.3l-2.56,2.56c-.87,.87-.26,2.88,1.35,4.49s3.63,2.22,4.49,1.35l2.56-2.56-5.85-5.85Z"/>
          <ellipse class="cls-4" cx="27.61" cy="36.22" rx="2.22" ry="4.13" transform="translate(-17.53 30.14) rotate(-45)"/>
        </g>
        <g>
          <path class="cls-2" d="M28.8,29.46l-2.58,4.99c-.29,.57,.11,1.56,.86,2.31s1.74,1.15,2.31,.86l4.99-2.58-5.58-5.58Z"/>
          <path class="cls-1" d="M32.97,30.86c-2.18-2.18-4.09-2.51-4.22-1.29-.09,.88,.8,2.37,1.97,3.54s2.66,2.06,3.54,1.97c1.23-.13,.89-2.04-1.29-4.22Z"/>
        </g>
        <path class="cls-3" d="M49.93,18.24c1.09-.92,2.1-1.93,3.05-2.99l5.97-6.97c.77-.87,.73-2.19-.09-3.01-.89-.89-2.36-.85-3.2,.1l-5.53,6.47c-1.12,1.27-2.35,2.44-3.66,3.5l-6.72,4.77c-1.4,1.13-2.7,2.39-3.88,3.76l-5.28,6.36c-.28,.28,.18,1.21,1.04,2.07s1.79,1.32,2.07,1.04l6.19-6.79c.8-.86,1.65-1.67,2.54-2.43l7.5-5.89Z"/>
      </g>
    </g>
  </g>
</svg>