<svg xmlns="http://www.w3.org/2000/svg" viewBox="0 0 64 64"><defs><style>.cls-1{opacity:0;}.cls-2{fill:#fff;}.cls-3{fill:#ff8ca9;}.cls-4{fill:#ffbdc6;}.cls-5{fill:#ff3d85;}.cls-6{fill:#fec92b;}.cls-7{fill:#fee854;}.cls-8{fill:#fc9504;}</style></defs><title>Candy Yellow</title><g id="Layer_2" data-name="Layer 2"><g id="_001-100" data-name="001-100"><g class="cls-1"><rect class="cls-2" width="64" height="64"/></g><path class="cls-3" d="M41.72,32.48s13-6,16.75-3.21-3.53,5.44-.52,9.22-.75,6.45-3.2,7.38c-3.76,1.42-2.6,8.54-8,5.76-4.95-2.56-8.12-13.73-8.12-13.73Z"/><path class="cls-4" d="M59,40.84a4.53,4.53,0,0,0-1-2.27c-4.87-1.92-13.51-.74-8.92-5a13,13,0,0,1,10-3.72,3.23,3.23,0,0,0-.59-.57c-3.71-2.78-16.75,3.21-16.75,3.21l-1.27,2.23-.05,3.37s5.68,10.12,8.92,9c1.72-.57-3.44-4.1-1.16-5.63C49.69,40.47,56.23,41,59,40.84Z"/><circle class="cls-5" cx="32.68" cy="32.36" r="14.44"/><path class="cls-3" d="M46.9,29.86A14.43,14.43,0,0,0,26.28,19.42,12,12,0,1,0,46.9,29.86Z"/><ellipse class="cls-4" cx="37.27" cy="26.28" rx="4.23" ry="5.44" transform="translate(-7.67 34.05) rotate(-45)"/><path class="cls-3" d="M25.79,30.81a8.67,8.67,0,0,0-.23-5.42c-1.66-4.36-5.27-12.61-9-13.52-5.28-1.3-1.54,7.37-7.24,7.72C3.43,19.94,3.8,26,5.87,28.4c3.47,4.1-6.24,7.65,2.18,11,3.69,1.47,9.56-1.37,13.19-3.14a8.68,8.68,0,0,0,4.54-5.44Z"/><path class="cls-4" d="M11.79,35.22S22.26,33,24.18,30.54s-9.33-3.81-12.44-7,3.9-8.73,7.83-5.83c2.55,1.87,4.81,5.61,6.08,8l-.09-.28c-1.66-4.36-5.27-12.61-9-13.52-5.28-1.3-1.54,7.37-7.24,7.72C3.43,19.94,3.8,26,5.87,28.4c1.72,2,.21,3.92-.74,5.73Z"/><path class="cls-5" d="M16.35,16.25c.92-3.13.6-4.1.22-4.38-5.28-1.3-1.54,7.37-7.24,7.72C3.43,19.94,3.8,26,5.87,28.4c3.15,3.71-4.54,7,.27,10.06,5.8,1.73,10.3-7,7.18-10.81S14.86,21.27,16.35,16.25Z"/><path class="cls-6" d="M41.72,32.48s13-6,16.75-3.21-3.53,5.44-.52,9.22-.75,6.45-3.2,7.38c-3.76,1.42-2.6,8.54-8,5.76-4.95-2.56-8.12-13.73-8.12-13.73Z"/><path class="cls-7" d="M59,40.84a4.53,4.53,0,0,0-1-2.27c-4.87-1.92-13.51-.74-8.92-5a13,13,0,0,1,10-3.72,3.23,3.23,0,0,0-.59-.57c-3.71-2.78-16.75,3.21-16.75,3.21l-1.27,2.23-.05,3.37s5.68,10.12,8.92,9c1.72-.57-3.44-4.1-1.16-5.63C49.69,40.47,56.23,41,59,40.84Z"/><circle class="cls-8" cx="32.68" cy="32.36" r="14.44"/><path class="cls-6" d="M46.9,29.86A14.43,14.43,0,0,0,26.28,19.42,12,12,0,1,0,46.9,29.86Z"/><ellipse class="cls-7" cx="37.27" cy="26.28" rx="4.23" ry="5.44" transform="translate(-7.67 34.05) rotate(-45)"/><path class="cls-6" d="M25.79,30.81a8.67,8.67,0,0,0-.23-5.42c-1.66-4.36-5.27-12.61-9-13.52-5.28-1.3-1.54,7.37-7.24,7.72C3.43,19.94,3.8,26,5.87,28.4c3.47,4.1-6.24,7.65,2.18,11,3.69,1.47,9.56-1.37,13.19-3.14a8.68,8.68,0,0,0,4.54-5.44Z"/><path class="cls-7" d="M11.79,35.22S22.26,33,24.18,30.54s-9.33-3.81-12.44-7,3.9-8.73,7.83-5.83c2.55,1.87,4.81,5.61,6.08,8l-.09-.28c-1.66-4.36-5.27-12.61-9-13.52-5.28-1.3-1.54,7.37-7.24,7.72C3.43,19.94,3.8,26,5.87,28.4c1.72,2,.21,3.92-.74,5.73Z"/><path class="cls-8" d="M16.35,16.25c.92-3.13.6-4.1.22-4.38-5.28-1.3-1.54,7.37-7.24,7.72C3.43,19.94,3.8,26,5.87,28.4c3.15,3.71-4.54,7,.27,10.06,5.8,1.73,10.3-7,7.18-10.81S14.86,21.27,16.35,16.25Z"/></g></g></svg>