<?xml version="1.0" encoding="UTF-8"?>
<svg id="Layer_2" data-name="Layer 2" xmlns="http://www.w3.org/2000/svg" viewBox="0 0 64 64">
  <defs>
    <style>
      .cls-1 {
        fill: #7b97a6;
      }

      .cls-2 {
        fill: #476475;
      }

      .cls-3 {
        fill: #324652;
      }

      .cls-4 {
        fill: #1a1a1a;
        opacity: 0;
      }

      .cls-5 {
        fill: #65d666;
      }
    </style>
  </defs>
  <g id="Rough">
    <g>
      <rect class="cls-4" width="64" height="64"/>
      <g>
        <path class="cls-3" d="M56.93,15.91c.04,.16,.07,.31,.07,.47,0,3.75-11.19,6.78-25,6.78s-25-3.04-25-6.78c0-.16,.03-.32,.07-.47-1.65,3.53-2.57,7.46-2.57,11.61,0,15.19,12.31,23.65,27.5,23.65s27.5-8.46,27.5-23.65c0-4.15-.92-8.08-2.57-11.61Z"/>
        <path class="cls-1" d="M32,23.16c13.81,0,25-3.04,25-6.78,0-.16-.03-.32-.07-.47-.14-.3-.29-.59-.44-.89-2.32-3.1-12.4-5.43-24.5-5.43S9.82,11.92,7.51,15.02c-.15,.29-.3,.59-.44,.89-.04,.16-.07,.31-.07,.47,0,3.75,11.19,6.78,25,6.78Z"/>
        <ellipse class="cls-3" cx="32" cy="16.38" rx="20.11" ry="4.44"/>
        <path class="cls-5" d="M13.23,17.97c2.9,1.66,10.21,2.85,18.77,2.85s15.87-1.18,18.77-2.85c-2.9-1.66-10.21-2.85-18.77-2.85s-15.87,1.18-18.77,2.85Z"/>
        <g>
          <path class="cls-2" d="M52.92,51.52l-3.82-8.1c-.27-.58-.74-.89-1.36-.89-.46,0-.99,.17-1.63,.53-1.35,.75-1.38,2.03-1.2,2.6l.02,.05,.03,.05,4.38,7.64c.36,.63,1.03,1.02,1.76,1.02,.35,0,.7-.09,1.01-.27,.91-.52,1.27-1.67,.82-2.62Z"/>
          <path class="cls-2" d="M15.41,43.06c-.64-.35-1.17-.53-1.63-.53-.62,0-1.09,.31-1.36,.89l-3.82,8.1c-.45,.95-.08,2.1,.82,2.62,.31,.18,.65,.27,1.01,.27,.72,0,1.4-.39,1.76-1.02l4.38-7.64,.03-.05,.02-.05c.18-.57,.15-1.85-1.2-2.6Z"/>
        </g>
        <path class="cls-2" d="M7,16.38c0-.16,.03-.32,.07-.47-1.58,3.38-2.48,7.14-2.56,11.11,2.61,8.22,12.23,14.33,23.7,14.33,13.48,0,24.4-8.42,24.4-18.8,0-.76-.07-1.52-.18-2.26-4.52,1.74-11.99,2.88-20.44,2.88-13.81,0-25-3.04-25-6.78Z"/>
      </g>
    </g>
  </g>
</svg>