<svg xmlns="http://www.w3.org/2000/svg" viewBox="0 0 64 64"><defs><style>.cls-1{opacity:0;}.cls-2{fill:#fff;}.cls-3{fill:#fc9504;}.cls-4{fill:#a0f;}.cls-5{fill:#d769ff;}.cls-6{fill:#5414b3;}.cls-7{fill:#fdbc0d;}.cls-8{fill:#fee854;}.cls-9{fill:#9c3d29;}</style></defs><title>Chest Large 2</title><g id="Layer_2" data-name="Layer 2"><g id="_101-200" data-name="101-200"><g class="cls-1"><rect class="cls-2" width="64" height="64"/></g><path class="cls-3" d="M5.71,22.61l3.53,1,.22,9.25.19,0,2.29,12.4L5.08,33.89A1,1,0,0,1,6,32.46l2.11.24L4.57,23.89A1,1,0,0,1,5.71,22.61Z"/><path class="cls-3" d="M58.29,22.61l-3.53,1-.22,9.25-.19,0-2.29,12.4,6.86-11.38A1,1,0,0,0,58,32.46l-2.11.24,3.55-8.81A1,1,0,0,0,58.29,22.61Z"/><polygon class="cls-4" points="13.6 51.48 11.89 15.22 52.11 15.22 50.4 51.48 13.6 51.48"/><rect class="cls-5" x="29.58" y="-2.47" width="4.84" height="40.22" transform="translate(49.65 -14.35) rotate(90)"/><rect class="cls-6" x="23.66" y="24.15" width="16.69" height="37.97" transform="translate(75.13 11.13) rotate(90)"/><rect class="cls-3" x="27.69" y="18.99" width="8.61" height="40.22" transform="translate(71.1 7.1) rotate(90)"/><path class="cls-7" d="M18.12,52.34H12.33a1.72,1.72,0,0,1-1.71-1.6L8.1,13.94a1.72,1.72,0,0,1,1.72-1.83h7a1.71,1.71,0,0,1,1.71,1.66l1.26,36.79A1.72,1.72,0,0,1,18.12,52.34Z"/><path class="cls-7" d="M51.67,52.34H45.88a1.72,1.72,0,0,1-1.71-1.78l1.26-36.79a1.71,1.71,0,0,1,1.71-1.66h7a1.72,1.72,0,0,1,1.72,1.83l-2.52,36.8A1.72,1.72,0,0,1,51.67,52.34Z"/><path class="cls-8" d="M8.1,13.94,9,26.36H19l-.43-12.59a1.71,1.71,0,0,0-1.71-1.66h-7A1.72,1.72,0,0,0,8.1,13.94Z"/><path class="cls-8" d="M45.43,13.77,45,26.36h10l.85-12.42a1.72,1.72,0,0,0-1.72-1.83h-7A1.71,1.71,0,0,0,45.43,13.77Z"/><path class="cls-3" d="M55.6,52.48l-1.8-7.8A9,9,0,0,0,48,52.34l6.58,1.19A.87.87,0,0,0,55.6,52.48Z"/><path class="cls-7" d="M48.85,12.11s-.64,6.46,6.63,8l2.66-8.48a.87.87,0,0,0-1-1.11Z"/><path class="cls-3" d="M8.4,52.48l1.81-7.8A9,9,0,0,1,16,52.34L9.4,53.53A.87.87,0,0,1,8.4,52.48Z"/><path class="cls-7" d="M15.15,12.11s.64,6.46-6.63,8L5.86,11.59a.87.87,0,0,1,1-1.11Z"/><path class="cls-7" d="M40.22,37.84c0-4.54-3.68-7.31-8.22-7.31s-8.22,2.77-8.22,7.31a5.66,5.66,0,0,0,3.59,5.56v1.67a1.81,1.81,0,0,0,1.82,1.82h5.62a1.81,1.81,0,0,0,1.82-1.82V43.4A5.66,5.66,0,0,0,40.22,37.84Z"/><path class="cls-9" d="M36.54,37.78a1.95,1.95,0,1,0-2.72,2.72,1.95,1.95,0,1,0,2.72-2.72Z"/><path class="cls-9" d="M27.46,37.78a1.95,1.95,0,1,0,2.72,2.72,1.95,1.95,0,1,0-2.72-2.72Z"/></g></g></svg>