<svg xmlns="http://www.w3.org/2000/svg" viewBox="0 0 64 64"><defs><style>.cls-1{fill:#1a1a1a;opacity:0;}.cls-2{fill:#1778ff;}.cls-3{fill:#37b9ff;}.cls-4{fill:#96dbff;}.cls-5{fill:#fff;}.cls-6{fill:#476475;}</style></defs><title>Clock</title><g id="Layer_2" data-name="Layer 2"><g id="Layer_3" data-name="Layer 3"><rect class="cls-1" width="64" height="64"/><path class="cls-2" d="M56.07,29.21a24.7,24.7,0,0,0-48.14,0H7.29v5.58a24.71,24.71,0,0,0,49.42,0V29.21Z"/><path class="cls-3" d="M32,4.5A24.71,24.71,0,0,0,7.29,29.21a23.42,23.42,0,0,0,.13,2.53L34.51,4.64C33.69,4.56,32.85,4.5,32,4.5Z"/><path class="cls-3" d="M51.72,14.33,17.11,48.94A24.71,24.71,0,0,0,51.72,14.33Z"/><path class="cls-4" d="M34.51,4.64,7.42,31.74a24.7,24.7,0,0,0,9.69,17.2L51.72,14.33A24.72,24.72,0,0,0,34.51,4.64Z"/><circle class="cls-5" cx="32" cy="29.21" r="18.17"/><path class="cls-6" d="M39.29,33.05l-5.82-4.12V17.8a2.47,2.47,0,0,0-4.94,0V29.72a2.51,2.51,0,0,0,.19,1.48c0,.05.05.1.07.16a1.19,1.19,0,0,0,.09.15,2.37,2.37,0,0,0,1.1,1l6.46,4.57a2.47,2.47,0,0,0,2.85-4Z"/></g></g></svg>