<?xml version="1.0" encoding="UTF-8"?>
<svg id="Layer_2" data-name="Layer 2" xmlns="http://www.w3.org/2000/svg" viewBox="0 0 64 64">
  <defs>
    <style>
      .cls-1 {
        fill: #abc0c9;
      }

      .cls-2 {
        fill: #7b97a6;
      }

      .cls-3 {
        fill: #476475;
      }

      .cls-4 {
        fill: #324652;
      }

      .cls-5 {
        fill: #1a1a1a;
        opacity: 0;
      }
    </style>
  </defs>
  <g id="Rough">
    <g>
      <rect class="cls-5" width="64" height="64"/>
      <g>
        <g>
          <polygon class="cls-3" points="42.38 4.5 21.62 4.5 13.89 16.11 18.37 55.83 45.63 55.83 50.11 16.11 42.38 4.5"/>
          <polygon class="cls-2" points="24.37 49.18 19.66 16.72 24.79 8.58 39.21 8.58 44.34 16.72 39.63 49.18 24.37 49.18"/>
          <polygon class="cls-1" points="38.64 16.47 34.41 16.47 34.36 13.08 29.64 13.08 29.59 16.47 25.36 16.47 25.2 20.5 29.53 20.5 29.43 27.9 34.57 27.9 34.47 20.5 38.8 20.5 38.64 16.47"/>
        </g>
        <polygon class="cls-4" points="25.07 59.5 38.93 59.5 45.63 55.83 18.37 55.83 25.07 59.5"/>
      </g>
    </g>
  </g>
</svg>