<?xml version="1.0" encoding="UTF-8"?>
<svg id="Layer_2" data-name="Layer 2" xmlns="http://www.w3.org/2000/svg" viewBox="0 0 64 64">
  <defs>
    <style>
      .cls-1 {
        fill: #f28000;
      }

      .cls-2 {
        fill: #e55605;
      }

      .cls-3 {
        fill: #fee854;
      }

      .cls-4 {
        fill: #fba312;
      }

      .cls-5 {
        fill: #1a1a1a;
        opacity: 0;
      }

      .cls-6 {
        fill: #18a068;
      }
    </style>
  </defs>
  <g id="Rough">
    <g>
      <rect class="cls-5" width="64" height="64"/>
      <g>
        <path class="cls-1" d="M31.99,15.38c-17.71,0-24.98,10.53-24.98,23.51,0,1.53,.1,3.03,.31,4.48,.7,4.8,3.88,8.78,8.41,10.53s9.71,2.62,16.26,2.62,12.43-1.04,16.86-2.86c4.05-1.66,6.97-5.31,7.7-9.62,.28-1.66,.42-3.38,.42-5.15,0-12.98-7.27-23.51-24.98-23.51Z"/>
        <path class="cls-4" d="M41.97,29.71c0,5.05-4.47,6.23-9.97,6.23s-9.97-1.18-9.97-6.23,4.47-8.73,9.97-8.73,9.97,3.68,9.97,8.73Z"/>
        <path class="cls-2" d="M54.35,49.26c.27-.38,.52-.77,.75-1.18,0-.02,.02-.05,.04-.07,.21-.38,.41-.77,.58-1.17,.06-.13,.1-.27,.15-.4,.12-.31,.24-.62,.34-.94,.14-.48,.26-.97,.35-1.47,.28-1.66,.42-3.38,.42-5.15h0c0-1.04-.06-2.06-.16-3.06-.02-.16-.04-.32-.05-.47-.11-.98-.26-1.95-.46-2.89-.1,9.12-5.6,10.97-5.6,10.97,1.29-5.18-1-10.36-2.53-13.05-.29-.51-1.07-.3-1.05,.29,.2,4.37-.07,14.09-5.78,18.37-2.01,1.51-5.4,2.18-9.27,2.36-3.89-.18-7.3-.85-9.33-2.36-5.75-4.28-6.01-14.02-5.81-18.38,.03-.59-.75-.81-1.05-.3-1.54,2.69-3.86,7.88-2.55,13.07,0,0-5.53-1.85-5.64-10.97-.21,.95-.36,1.92-.47,2.91-.02,.14-.03,.28-.05,.43-.1,1.01-.16,2.03-.16,3.08h0v.02c0,.82,.04,1.64,.1,2.44,.02,.24,.05,.48,.08,.72,.05,.53,.12,1.06,.2,1.57,.67,4.06,3.13,7.5,6.67,9.46,.15,.08,.3,.14,.45,.22,.28,.14,.56,.27,.85,.4,.01,0,.03,0,.04,0,.12,.05,.22,.12,.34,.16h0c1.08,.42,2.23,.79,3.45,1.12,2.43,.65,5.13,1.1,8.12,1.33,1.49,.12,3.06,.17,4.69,.17,6.85,0,12.43-1.04,16.86-2.86,2.25-.92,4.13-2.47,5.5-4.39h-.02Z"/>
        <path class="cls-6" d="M37.17,16.01c-.41-.3-.74-.67-1.01-1.1-.72-1.15-1.99-3.54-2.21-6.36-.04-.49-.38-.91-.87-.97-.75-.09-1.95-.17-3.44,.03-.44,.06-.78,.4-.85,.84-.17,1.11-.55,3.33-1.22,5.63-.28,.95-.8,1.81-1.48,2.53-.7,.74-1.48,1.71-1.14,2.13,.89,1.11,4.69-1.71,4.69-1.71,0,0-.39,2.99,1.61,2.99,2.24,0,2.75-2.94,2.75-2.94,0,0,4.31,2.53,5.12,1.37,.39-.56-1.12-1.81-1.96-2.43h0Z"/>
        <g>
          <path class="cls-3" d="M47.46,37.86l-7.61,4.82-7.41-4.76c-.3-.19-.68-.19-.98,0l-7.41,4.76-7.61-4.82c-.43-.26-.99-.13-1.25,.3-.15,.25-.18,.55-.07,.82l4.21,10.28c.19,.45,.69,.67,1.15,.51l6.24-2.23,4.72,3.43c.32,.23,.76,.23,1.08,0l4.72-3.43,6.24,2.23c.46,.16,.96-.06,1.15-.51l4.21-10.28c.22-.45,.03-1-.42-1.22-.31-.15-.68-.11-.96,.1Z"/>
          <path class="cls-3" d="M45.47,28.78l-8.45,2.82c-.47,.17-.72,.69-.55,1.17,.06,.18,.18,.33,.33,.44l5.08,3.33c.42,.28,.99,.16,1.26-.26,.01-.02,.02-.04,.03-.05l3.37-6.13c.24-.44,.08-1-.37-1.24-.22-.12-.47-.14-.71-.07Z"/>
          <path class="cls-3" d="M18.44,28.78l8.45,2.82c.47,.17,.72,.69,.55,1.17-.06,.18-.18,.33-.33,.44l-5.08,3.33c-.42,.28-.99,.16-1.26-.26-.01-.02-.02-.04-.03-.05l-3.37-6.13c-.24-.44-.08-1,.37-1.24,.22-.12,.47-.14,.71-.07Z"/>
        </g>
      </g>
    </g>
  </g>
</svg>