<?xml version="1.0" encoding="UTF-8"?>
<svg id="Layer_2" data-name="Layer 2" xmlns="http://www.w3.org/2000/svg" viewBox="0 0 64 64">
  <defs>
    <style>
      .cls-1 {
        fill: #fff;
      }

      .cls-2 {
        fill: #d3dee3;
      }

      .cls-3 {
        fill: #476475;
      }

      .cls-4 {
        fill: #dce8ed;
      }

      .cls-5 {
        fill: #1a1a1a;
        opacity: 0;
      }
    </style>
  </defs>
  <g id="Rough">
    <g>
      <rect class="cls-5" width="64" height="64"/>
      <g>
        <path class="cls-2" d="M50.23,39.13s5.21,5.46,2.99,12.97c-.43,1.45-2.34,1.79-3.3,.62-1.04-1.27-2.45-2.62-4.05-3.17-3.37-1.15-3.69-4.66-2.16-7.84s5.08-4.57,6.52-2.59Z"/>
        <path class="cls-1" d="M54.39,30.37c-.53,17.78-12.34,27.94-29.74,28.95-18.53,1.08-16.2-2.83-12.44-10.48,3.43-6.98-2.83-13.32-2.15-22.69C12.38-5.93,55.3-.55,54.39,30.37Z"/>
        <g>
          <path class="cls-3" d="M46.95,20.76c-1.67-2.16-4.24-2.34-5.74-.41-1.5,1.93-1.36,5.25,.32,7.41,1.67,2.16,4.24,2.34,5.74,.41,1.5-1.93,1.36-5.25-.32-7.41Z"/>
          <path class="cls-3" d="M26,20.76c-1.67,2.16-1.81,5.47-.32,7.41s4.07,1.75,5.74-.41c1.67-2.16,1.81-5.47,.32-7.41-1.5-1.93-4.07-1.75-5.74,.41Z"/>
        </g>
        <path class="cls-4" d="M30.62,41.53s4.01,6.4,.33,13.31c-.71,1.33-2.65,1.28-3.35-.05-.77-1.45-1.88-3.06-3.34-3.91-3.08-1.8-2.68-5.3-.55-8.12,2.13-2.82,5.89-3.46,6.91-1.23Z"/>
        <path class="cls-3" d="M32.43,32.21c2.61,1.9,5.47,1.9,8.08,0,.7-.61,1.81,.24,1.4,1.07-1.41,3.16-5.82,4.22-8.69,2.4-.97-.57-3.3-2.68-1.74-3.6,.33-.15,.68-.08,.95,.13h0Z"/>
      </g>
    </g>
  </g>
</svg>