<svg xmlns="http://www.w3.org/2000/svg" viewBox="0 0 64 64"><defs><style>.cls-1{fill:#1a1a1a;opacity:0;}.cls-2{fill:#bdccd4;}.cls-3{fill:#93abb7;}.cls-4{fill:#d1864b;}.cls-5{fill:#de9c5a;}.cls-6{fill:#7b97a6;}</style></defs><title>Knife Stone</title><g id="Layer_2" data-name="Layer 2"><g id="Layer_3" data-name="Layer 3"><rect class="cls-1" width="64" height="64"/><path class="cls-2" d="M57,5.15a.94.94,0,0,0-1.56-.37L21.49,38.72l4.68,4.68,7.57.14a3.78,3.78,0,0,0,2.77-1.12C58.65,19.89,58.12,8.74,57,5.15Z"/><path class="cls-3" d="M29.84,43.47C49.27,23.81,52.6,13,52.42,7.79L21.49,38.72l4.68,4.68Z"/><rect class="cls-4" x="13.32" y="38.76" width="8.29" height="19.69" transform="translate(39.48 1.89) rotate(45)"/><rect class="cls-5" x="13.92" y="37.3" width="4.14" height="19.69" transform="translate(38.02 2.5) rotate(45)"/><rect class="cls-3" x="20.7" y="37.09" width="5.47" height="11.12" rx="1.27" transform="translate(-23.29 29.06) rotate(-45)"/><path class="cls-6" d="M23.44,42.64a8.28,8.28,0,0,1-2.25,1.62l3.35,3.35a1.26,1.26,0,0,0,1.79,0l2.07-2.07a1.27,1.27,0,0,0,0-1.8l-3.34-3.35A8.2,8.2,0,0,1,23.44,42.64Z"/><rect class="cls-3" x="9.18" y="48.61" width="5.47" height="11.12" rx="1.27" transform="translate(-34.81 24.29) rotate(-45)"/><path class="cls-6" d="M11.92,54.16a8.28,8.28,0,0,1-2.25,1.62L13,59.13a1.27,1.27,0,0,0,1.8,0l2.07-2.07a1.27,1.27,0,0,0,0-1.8l-3.34-3.34A8.53,8.53,0,0,1,11.92,54.16Z"/></g></g></svg>