<svg xmlns="http://www.w3.org/2000/svg" viewBox="0 0 64 64"><defs><style>.cls-1{opacity:0;}.cls-2{fill:#fff;}.cls-3{fill:#80bad9;}</style></defs><title>Mouse </title><g id="Layer_2" data-name="Layer 2"><g id="Layer_3" data-name="Layer 3"><g class="cls-1"><rect class="cls-2" width="64" height="64"/></g><path class="cls-3" d="M56.21,38.44c0-1.5-1.25-2.38-2.25-3.3L51.57,33c1.15-.42,2.5-.71,3.16-1.85a3.06,3.06,0,0,0,.38-1.29c.13-1.17.23-2.35.34-3.52.21-2.12.63-4.32.63-6.45,0-3.06-3.19-3.4-5.49-4l-10.73-3L15.48,6c-1-.29-2.08-.59-3.13-.87-2.08-.57-5,.52-4.51,3.15l0-.2c0,2.71.51,5.51.76,8.21A16.74,16.74,0,0,0,9,19.42c.33,1.12.7,2.23,1.06,3.34l4.57,14.49,4.77,15.09,1.29,4.09c.08.26.16.54.26.79a3.25,3.25,0,0,0,4.33,1.55c1.55-.72,2-2.68,2.59-4.12l2.83-6.78c3.57,3.35,7.06,6.8,10.71,10.05,2,1.75,3.79.83,5.36-.66l6.7-6.38a5.34,5.34,0,0,0,1.63-2,20.22,20.22,0,0,0,.52-4.35l.32-3L56.07,40l.06-.6c0-.07.09-.83,0-.46A3.88,3.88,0,0,0,56.21,38.44Z"/><path class="cls-2" d="M11,4.93a10.21,10.21,0,0,1,2.6.59l4.88,1.36,15.13,4.21,14.64,4.08,4.38,1.22c1.41.39,2.89.81,3.33,2.44.87,3.23-3.44,4-5.6,4.79L43.93,26l7.31,6.69c1.23,1.13,2.46,2.24,3.68,3.38,1.47,1.36,1.72,3.24.21,4.7-2.61,2.55-5.3,5-8,7.53-1.54,1.46-3.51,2.14-5.33.57-1-.84-1.87-1.75-2.8-2.61L30.6,38.35l-2.22,5.28L27,47a5.16,5.16,0,0,1-1.44,2.33,3.41,3.41,0,0,1-5.2-1.52c-.07-.19-.12-.38-.18-.57L19,43.42,9.83,14.66l-1.6-5c-.1-.3-.21-.6-.29-.91A3.07,3.07,0,0,1,11,4.93Z"/></g></g></svg>