<?xml version="1.0" encoding="UTF-8"?>
<svg id="Layer_2" data-name="Layer 2" xmlns="http://www.w3.org/2000/svg" viewBox="0 0 64 64">
  <defs>
    <style>
      .cls-1 {
        fill: #abc0c9;
      }

      .cls-2 {
        fill: #7b97a6;
      }

      .cls-3 {
        fill: #5d7c8c;
      }

      .cls-4 {
        fill: #bb5938;
      }

      .cls-5 {
        fill: #1a1a1a;
        opacity: 0;
      }
    </style>
  </defs>
  <g id="Rough">
    <g>
      <rect class="cls-5" width="64" height="64"/>
      <g>
        <path class="cls-2" d="M46.86,35.75s-5.96-3.75-8.91-5.67l.99-11.66s.44-6.31-.22-12.23c-.13-1.14-1.22-1.89-2.34-1.65-1.8,.39-4.08,1.4-4.14,4.04-.1,4.37-.54,9.49-.54,9.49l-.59,5.85-.23-.79s-.32-5.43-1.1-9.73c-.19-1.04-.69-1.77-1.33-2.27-2.23-1.74-5.48,.17-5.34,3,.17,3.26,.38,6.47,.52,8.46,.09,1.33,.31,2.64,.65,3.92l.36,1.34h0c.94,4.74,.77,8.56-1.94,12,0,0,2.64,7.24,4.56,8.69l-.83,2.17c-.11,.29-.03,.63,.21,.82,.86,.67,3.34,2,9.31,1.59,5.97-.4,8.42-2.18,9.26-3.03,.24-.24,.27-.62,.08-.9l-.95-1.41s3.56-5.24,2.51-12.03Z"/>
        <path class="cls-3" d="M30.75,37.08s-3.72-.74-6.2-2.65-4.5-6.74-7.91-7.64c-2.39-.63-3.87,.44-4.54,1.14-.26,.27-.25,.69,.02,.96l2.17,2.11s2.76,4.41,3.54,6.99,.55,7.05,6.48,10.61,9.67-2.17,10.61-4.19c.95-2.02,.88-6.07-4.16-7.32Z"/>
        <path class="cls-3" d="M26.43,31.36c-.2-.8,.66-1.71,1.91-2.02s2.43,.09,2.62,.9-.9,.71-2.15,1.02-2.18,.9-2.38,.1Z"/>
        <path class="cls-3" d="M29.54,22.35c.22,.69-.54,1.54-1.7,1.91s-2.27,.1-2.48-.58,.81-.69,1.97-1.05,2-.96,2.21-.27Z"/>
        <path class="cls-3" d="M28.37,17.19c.09,.66-.56,1.29-1.45,1.41s-1.68-.32-1.77-.98,.67-.47,1.56-.59,1.58-.5,1.66,.16Z"/>
        <path class="cls-3" d="M37.01,13.41c0,.66-.73,1.19-1.63,1.19s-1.63-.53-1.63-1.19,.73-.37,1.63-.37,1.63-.28,1.63,.37Z"/>
        <path class="cls-3" d="M37.58,21.88c0,.75-1.09,1.35-2.43,1.35s-2.43-.61-2.43-1.35,1.09-.43,2.43-.43,2.43-.32,2.43,.43Z"/>
        <path class="cls-3" d="M32.43,30.06c.08-.88,1.22-1.5,2.56-1.38s2.36,.92,2.28,1.8-1.13,.41-2.46,.29-2.45,.17-2.38-.71Z"/>
        <g>
          <path class="cls-3" d="M49.65,25.55c-1.73-.69-3.42-.43-3.94,.75-1.13,2.59-2.73,5.69-3.71,8.33-.54,1.45,.35,3.41,2.06,4.09s3.71-.14,4.31-1.57c1.1-2.6,2.68-5.71,3.63-8.37,.43-1.21-.62-2.56-2.35-3.24Z"/>
          <path class="cls-1" d="M48.03,35.99c-.55,1.37-1.85,1.4-3.22,.86s-2.3-1.46-1.76-2.83,2.1-2.05,3.47-1.5,2.05,2.1,1.5,3.47Z"/>
        </g>
        <g>
          <path class="cls-3" d="M43.25,21.75c-1.96-.72-3.84-.37-4.37,.95-1.19,2.92-2.9,6.96-3.92,9.95-.56,1.63,.49,3.81,2.43,4.51s4.14-.27,4.77-1.88c1.16-2.94,2.84-6.98,3.82-9.98,.45-1.36-.77-2.84-2.72-3.55Z"/>
          <path class="cls-1" d="M41.73,33.98c-.57,1.55-2.02,1.62-3.57,1.05s-2.61-1.56-2.05-3.11c.57-1.55,2.29-2.35,3.84-1.78s2.35,2.29,1.78,3.84Z"/>
        </g>
        <path class="cls-4" d="M46.57,51.18c-.35-.13-.51-.15-.51-.15,.04-.19,.07-.39,.09-.58,.09-1.04-1.03-1.75-1.92-1.21-1.1,.67-1.71,1.6-1.71,1.6-.76-.61-1.46-.98-1.94-1.19-.41-.18-.87-.12-1.24,.14-1.4,.98-2.31,2.02-2.31,2.02-.38-.68-.92-1.14-1.33-1.41-.36-.24-.83-.28-1.23-.1-1.01,.47-1.49,1.09-1.49,1.09-.3-.7-1.13-1.29-1.66-1.61-.3-.18-.68-.22-1.02-.12-.73,.22-1.08,.44-1.08,.44,0,0-.62-.87-2.4-.97-.49-.03-.92-.02-1.28,.01-.88,.07-1.42,.98-1.06,1.79,.25,.57,.55,.98,.55,.98-.17,.09-.33,.22-.48,.38-.66,.69-.31,1.85,.62,2.09,.6,.15,1.07,.15,1.07,.15-.04,.24-.08,.49-.1,.74-.08,.75,.52,1.39,1.27,1.39,.88,0,1.56-.09,1.56-.09,.19,.57,.36,1.02,.51,1.36,.23,.54,.81,.84,1.38,.74,1.24-.22,2.19-.84,2.19-.84,0,.22,.02,.44,.06,.64,.13,.74,.9,1.18,1.62,.97,1.86-.56,2.89-1.77,2.89-1.77,.63,.56,1.41,.86,1.99,1.01,.55,.14,1.12-.1,1.42-.58,.52-.85,.64-1.71,.64-1.71,1.14,.68,2.36,.53,3.04,.35,.37-.09,.68-.35,.83-.7,.36-.85,.3-1.72,.3-1.72,.52-.38,.93-.77,1.24-1.13,.59-.67,.34-1.72-.49-2.03Z"/>
      </g>
    </g>
  </g>
</svg>