<?xml version="1.0" encoding="utf-8" ?>
<svg xmlns="http://www.w3.org/2000/svg" xmlns:xlink="http://www.w3.org/1999/xlink" width="1500" height="1500">
	<path fill="#18B62F" transform="scale(1.46484 1.46484)" d="M721.012 156.335C724.421 155.285 730.062 156.103 733.215 157.707C734.094 158.154 734.444 158.416 734.935 159.232C730.857 158.151 726.851 157.342 722.614 157.877L721.647 158.552L721.812 158.901C724.932 159.585 728.691 159.954 731.108 162.202C728.553 161.493 726.202 160.668 723.523 161C721.248 161.059 717.41 163.131 715.656 162.373L715.251 161.354C716.367 158.804 718.541 157.384 721.012 156.335Z"/>
	<path fill="#003B2E" transform="scale(1.46484 1.46484)" d="M264.923 134.138L266.543 135.049C265.906 137.625 264.128 142.327 265.447 144.684C266.917 144.152 267.44 143.166 268.431 141.981L269.786 143.268C264.827 151.178 261.189 159.667 257.381 168.167C258.932 156.584 262.914 145.612 264.923 134.138Z"/>
	<path fill="#041D29" transform="scale(1.46484 1.46484)" d="M264.923 134.138C261.755 118.732 256.704 108.453 266.412 93.8136C276.441 78.6899 292.24 70.2279 307.068 60.714C311.99 57.5553 316.568 53.846 321.533 50.77C316.811 57.4965 311.766 64.2064 309.177 72.1042C304.397 86.6829 309.432 101.637 300.749 115.351C293.229 127.228 278.521 132.318 269.786 143.268L268.431 141.981C272.401 125.531 295.313 123.804 300.927 107.563C302.603 102.714 302.827 97.7225 302.981 92.6448C303.449 77.2201 305.187 71.9285 312.799 58.6373C306.543 62.0267 300.461 66.3224 294.604 70.3697C283.638 77.9474 269.969 88.8431 266.685 102.522C265.729 106.506 265.858 110.743 266.118 114.804C266.529 121.241 267.893 128.197 266.644 134.576C266.613 134.734 266.577 134.892 266.543 135.049L264.923 134.138Z"/>
	<defs>
		<linearGradient id="gradient_0" gradientUnits="userSpaceOnUse" x1="108.82327" y1="359.4993" x2="84.911118" y2="332.56348">
			<stop offset="0" stop-color="#022C27"/>
			<stop offset="1" stop-color="#00492F"/>
		</linearGradient>
	</defs>
	<path fill="url(#gradient_0)" transform="scale(1.46484 1.46484)" d="M155.624 290.536L156.284 290.647C154.12 293.539 148.335 295.988 145.244 298.077C138.83 302.41 132.774 307.622 126.999 312.767C91.7761 344.142 69.841 376.305 49.6219 418.59L49.4498 418.67L49.0751 418.176C55.5405 395.52 61.712 373.829 72.8161 352.897C91.2309 318.185 119.298 301.703 155.624 290.536Z"/>
	<path fill="#009531" transform="scale(1.46484 1.46484)" d="M266.543 135.049C266.577 134.892 266.613 134.734 266.644 134.576C267.893 128.197 266.529 121.241 266.118 114.804C265.858 110.743 265.729 106.506 266.685 102.522C269.969 88.8431 283.638 77.9474 294.604 70.3697C300.461 66.3224 306.543 62.0267 312.799 58.6373C305.187 71.9285 303.449 77.2201 302.981 92.6448C302.827 97.7225 302.603 102.714 300.927 107.563C295.313 123.804 272.401 125.531 268.431 141.981C267.44 143.166 266.917 144.152 265.447 144.684C264.128 142.327 265.906 137.625 266.543 135.049Z"/>
	<path fill="#18B62F" transform="scale(1.46484 1.46484)" d="M299.341 75.475C298.662 81.8993 275.088 122.969 270.253 130.663C270.171 130.331 270.038 130.009 270.007 129.669C269.796 127.287 272.299 122.737 273.253 120.457C280.733 102.588 286.886 90.5719 299.341 75.475Z"/>
	<defs>
		<linearGradient id="gradient_1" gradientUnits="userSpaceOnUse" x1="909.82166" y1="363.46802" x2="936.04407" y2="328.33255">
			<stop offset="0" stop-color="#002D23"/>
			<stop offset="1" stop-color="#024D31"/>
		</linearGradient>
	</defs>
	<path fill="url(#gradient_1)" transform="scale(1.46484 1.46484)" d="M857.92 288.012C871.088 289.416 900.033 301.93 911.548 309.231C949.915 333.556 965.701 377.544 975.262 419.74C972.429 416.255 970.8 410.267 968.863 406.111Q964.886 397.701 960.068 389.744C935.258 349.636 901.21 308.806 857.92 288.012Z"/>
	<path fill="#035933" transform="scale(1.46484 1.46484)" d="M119.969 260.471C125.81 260.118 131.76 261.931 137.623 261.968C158.044 262.093 174.188 257.008 194.682 264.903Q181.114 265.137 167.713 267.274C129.886 273.137 88.5262 292.222 64.4842 322.774C60.4924 327.846 56.7459 333.358 53.6788 339.042C51.2268 343.586 49.1496 348.874 46.0606 352.995C45.9751 353.109 45.8858 353.221 45.7984 353.333C56.7123 320.742 74.1759 291.778 102.486 271.295C108.031 267.284 114.111 263.997 119.969 260.471Z"/>
	<defs>
		<linearGradient id="gradient_2" gradientUnits="userSpaceOnUse" x1="883.35553" y1="319.20911" x2="932.61658" y2="278.14545">
			<stop offset="0" stop-color="#01732B"/>
			<stop offset="1" stop-color="#01492F"/>
		</linearGradient>
	</defs>
	<path fill="url(#gradient_2)" transform="scale(1.46484 1.46484)" d="M833.428 263.823C840.23 259.495 858.393 258.882 866.37 259.364C873.13 259.773 879.858 261.045 886.633 261.175C892.414 261.286 898.132 260.461 903.888 260.101C936.441 275.553 960.086 304.749 972.019 338.374C973.883 343.629 975.532 348.982 977.151 354.318C977.071 354.205 976.99 354.093 976.911 353.979C971.71 346.372 969.19 337.183 963.609 329.56C940.136 297.5 900.124 275.791 861.577 268.189C852.291 266.358 842.595 265.825 833.428 263.823Z"/>
	<path fill="#003B2E" transform="scale(1.46484 1.46484)" d="M699.233 53.2962C704.013 55.6278 707.708 60.8342 712.169 63.8996C727.491 74.4279 745.213 78.2757 754.713 96.4315C761.271 108.965 757.932 120.075 754.035 132.804C756.229 138.019 757.811 143.322 759.263 148.777C759.442 149.878 759.532 150.985 759.641 152.094C755.927 148.091 756.565 140.996 750.156 135.651C741.708 128.605 731.209 128.666 723.978 118.785C715.145 106.715 714.392 90.5191 710.102 76.6155C707.536 68.2991 703.636 60.7604 699.233 53.2962Z"/>
	<path fill="#009531" transform="scale(1.46484 1.46484)" d="M710.537 66.6581C714.481 68.2531 718.041 70.7317 721.74 72.8158C733.63 79.5149 746.262 85.9463 752.164 99.0527C756.423 108.511 755.154 117.41 751.527 126.776L749.884 129.824C745.893 127.993 741.601 126.208 738.003 123.662C725.872 115.075 713.268 81.3652 710.537 66.6581Z"/>
	<defs>
		<linearGradient id="gradient_3" gradientUnits="userSpaceOnUse" x1="929.9884" y1="878.86877" x2="887.16193" y2="827.38312">
			<stop offset="0" stop-color="#013D29"/>
			<stop offset="1" stop-color="#00292C"/>
		</linearGradient>
	</defs>
	<path fill="url(#gradient_3)" transform="scale(1.46484 1.46484)" d="M988.204 732.354C989.542 739.584 978.488 785.301 975.547 795.501C962.476 840.824 933.098 886.775 890.958 909.807C860.869 926.252 827.322 930.358 794.376 920.682C792.207 919.942 790.266 919.006 788.235 917.96C812.495 924.185 838.6 916.929 860.47 906.036C912.868 879.936 952.981 829.188 974.483 775.588C980.259 761.191 983.359 746.879 988.204 732.354Z"/>
	<path fill="#003B2E" transform="scale(1.46484 1.46484)" d="M36.3939 730.749C37.6038 732.379 45.4906 760.082 46.8588 764.202C61.4751 808.209 86.0473 846.448 120.574 877.529C155.662 909.116 193.567 925.639 241.372 923.181C240.688 924.079 239.938 924.022 238.875 924.286Q226.126 926.875 213.161 927.952C175.263 931.239 139.588 919.907 110.461 895.311C63.5649 855.711 41.4682 790.222 36.3939 730.749Z"/>
	<path fill="#041D29" transform="scale(1.46484 1.46484)" d="M463.209 202.568C468.306 141.812 490.608 89.5279 537.815 49.5692C555.575 34.5366 574.599 24.975 596.851 18.2614C608.426 24.5209 619.348 31.8089 630.581 38.6389C646.281 48.1856 662.681 57.4707 679.117 65.6956C677.166 86.8941 680.649 107.445 681.59 128.542C662.28 139.584 643.042 152.86 622.389 161.166C605.384 149.504 584.91 133.675 578.979 112.947C588.303 100.917 600.596 91.3576 608.909 78.4795C621.47 88.1236 629.717 97.5951 634.011 113.072C628.168 108.919 621.998 105.808 615.29 103.273C612.042 107.694 608.599 112.078 604.775 116.023C610.542 121.099 616.389 126.31 622.764 130.617C632.925 125.219 642.57 118.557 652.032 112.025Q651.352 95.3394 651.286 78.6402C636.794 71.0569 617.498 60.1022 601.078 58.8206C571.376 76.2738 554.617 106.516 546.202 139.032C542.323 154.021 538.426 175.892 546.855 190.112C552.572 199.756 565.263 200.263 573.881 206.169C581.596 211.456 587.58 219.263 593.023 226.743C619.387 220.041 646.001 227.863 668.907 241.39C677.931 246.719 686.934 253.132 694.367 260.578C715.85 244.72 745.259 223.965 749.621 195.717C751.224 185.333 750.075 174.297 743.552 165.729C743.046 165.064 742.507 164.446 741.953 163.82C739.751 162.091 737.32 160.693 734.935 159.232C734.444 158.416 734.094 158.154 733.215 157.707C730.062 156.103 724.421 155.285 721.012 156.335C718.541 157.384 716.367 158.804 715.251 161.354L715.656 162.373C717.41 163.131 721.248 161.059 723.523 161C726.202 160.668 728.553 161.493 731.108 162.202C733.841 163.656 736.107 166.265 737.095 169.22C738.403 173.132 737.903 178.348 736.008 181.991Q735.621 182.718 735.164 183.402Q734.707 184.087 734.184 184.722Q733.661 185.358 733.077 185.939Q732.494 186.519 731.855 187.038Q731.217 187.558 730.529 188.011Q729.842 188.465 729.114 188.847Q728.385 189.23 727.621 189.538Q726.858 189.846 726.068 190.077C721.536 191.447 716.739 190.982 712.624 188.611C708.16 186.039 704.373 181.708 703.108 176.661C701.689 171.003 702.512 164.837 705.616 159.874C708.77 154.832 714.048 151.646 719.801 150.453Q720.475 150.308 721.156 150.198Q721.838 150.088 722.523 150.013Q723.209 149.938 723.898 149.899Q724.587 149.859 725.276 149.855Q725.966 149.851 726.655 149.883Q727.344 149.915 728.031 149.982Q728.718 150.049 729.4 150.151Q730.082 150.253 730.758 150.39Q731.434 150.527 732.102 150.699Q732.771 150.871 733.429 151.077Q734.087 151.283 734.734 151.523Q735.381 151.762 736.015 152.035Q736.649 152.308 737.267 152.612Q737.886 152.917 738.489 153.254Q739.091 153.59 739.675 153.957Q740.259 154.324 740.824 154.72C749.663 160.813 755.356 171.403 757.207 181.821C758.323 188.099 757.777 194.311 757.294 200.621C775.564 170.051 777.972 149.072 777.544 114.495C784.64 149.214 787.903 176.299 772.437 209.934C779.981 203.408 788.282 197.245 798.855 198.161C805.211 198.711 811.001 202.062 814.982 207.004C818.034 210.792 819.778 215.597 819.093 220.486C818.409 225.371 815.496 229.853 811.565 232.774C808.142 235.319 803.774 236.633 799.517 236.002C795.597 235.421 792.459 233.308 790.143 230.13C788.195 227.457 787.269 224.48 786.383 221.341C787.534 217.465 788.565 214.568 791.345 211.497C792.715 210.134 794.307 209.12 795.901 208.046L795.704 207.359L793.997 206.632C789.898 207.332 786.412 208.581 782.855 210.736C769.404 218.882 754.852 237.989 741.263 248.827Q756.357 247.642 771.495 247.432C797.018 247.103 816.243 247.5 840.136 236.175C850.016 231.492 859.039 225.217 866.217 216.91C874.717 207.072 880.684 194.608 879.554 181.35C878.731 171.686 873.449 162.75 866.07 156.578C860.085 151.572 852.611 148.37 844.674 149.096C838.271 149.683 832.676 153.171 828.789 158.216C825.327 162.708 823.093 168.44 823.86 174.168C824.378 178.041 826.232 181.791 829.422 184.136C832.937 186.721 837.317 187.066 841.505 186.363C844.63 185.839 847.491 184.644 850.425 183.497C845.273 187.188 839.723 191.013 833.015 190.048C828.247 189.361 824.487 185.961 821.78 182.159C818.144 177.051 817.032 170.829 818.307 164.721C819.906 157.066 825.301 150.868 831.79 146.796C839.239 142.121 847.864 140.485 856.452 142.477C869.246 145.445 880.126 154.548 886.93 165.576C893.733 176.603 896.116 188.732 892.981 201.397C887.633 223.001 870.671 235.52 854.74 249.207C896.148 245.836 940.229 234.393 968.16 201.277C990.377 174.934 998.145 141.25 995.22 107.401Q994.995 104.829 994.662 102.268C996.969 108.066 997.525 114.779 998.155 120.966C1000.69 145.851 999.233 171.662 989.243 194.892C977.392 222.449 954.842 241.903 927.192 252.826Q915.779 257.228 903.888 260.101C898.132 260.461 892.414 261.286 886.633 261.175C879.858 261.045 873.13 259.773 866.37 259.364C858.393 258.882 840.23 259.495 833.428 263.823C818.85 262.947 804.175 263.646 789.59 264.091Q769.239 264.554 748.896 265.277C762.183 268.774 775.725 271.915 788.606 276.731Q791.733 277.929 794.835 279.194Q797.936 280.458 801.01 281.788Q804.083 283.118 807.128 284.512Q810.173 285.907 813.188 287.365Q816.202 288.824 819.186 290.346Q822.169 291.869 825.119 293.454Q828.069 295.039 830.985 296.686Q833.901 298.333 836.781 300.042Q839.661 301.751 842.505 303.52Q845.349 305.289 848.154 307.118Q850.959 308.948 853.726 310.836Q856.492 312.724 859.217 314.67Q861.943 316.616 864.626 318.62Q867.31 320.624 869.95 322.684Q872.591 324.744 875.187 326.859Q877.783 328.974 880.334 331.144Q882.885 333.314 885.39 335.538Q887.894 337.762 890.351 340.038Q892.808 342.314 895.216 344.641Q897.624 346.969 899.982 349.347Q902.34 351.725 904.647 354.153Q906.954 356.58 909.21 359.056Q911.465 361.532 913.667 364.055Q915.87 366.578 918.018 369.147Q920.166 371.716 922.26 374.33Q924.353 376.944 926.391 379.602Q928.429 382.26 930.41 384.96Q932.39 387.661 934.314 390.403Q936.237 393.144 938.102 395.926Q939.966 398.708 941.772 401.529Q943.577 404.35 945.322 407.208Q947.068 410.066 948.752 412.961C984.384 474.066 998.59 536.675 996.793 607.103Q996.487 620.293 995.403 633.442Q994.319 646.591 992.461 659.653Q990.603 672.715 987.977 685.644Q985.351 698.574 981.967 711.326C963.795 780.054 922.052 842.095 859.859 878.208C847.719 885.258 834.718 891.038 821.123 894.631C814.189 896.465 801.909 897.591 796.078 900.74C790.92 903.525 786.298 908.432 781.839 912.219Q772.951 919.824 763.354 926.51C719.446 956.529 667.987 971.329 614.841 963.77C572.57 990.846 524.548 1002.96 474.864 992.084C450.757 986.805 429.295 976.49 408.617 963.271C343.224 969.465 291.76 955.21 240.999 913.165Q234.807 908.076 228.887 902.674C217.794 900.548 206.754 898.723 196.098 894.81C149.644 877.757 107.913 835.695 80.6286 795.541C30.6081 721.926 17.8739 613.35 34.3823 527.447C51.1143 440.381 97.6404 359.258 171.954 309.072C203.25 287.937 237.891 275.738 274.171 266.289C260.437 265.862 246.663 266.799 232.928 266.823C220.148 266.846 207.414 265.882 194.682 264.903C174.188 257.008 158.044 262.093 137.623 261.968C131.76 261.931 125.81 260.118 119.969 260.471C114.464 258.528 108.426 258.035 102.82 256.019C74.2294 245.738 49.1591 226.49 36.1312 198.512C25.6897 176.088 23.1084 150.912 25.3078 126.491C25.9621 119.227 26.8367 111.793 29.3538 104.907L29.0389 106.149L29.3346 106.041C26.0115 135.325 30.4086 162.992 46.0079 188.403C65.5797 220.285 99.6062 237.885 135.362 245.142C146.334 247.368 157.642 248.109 168.516 250.704C150.765 238.202 136.992 224.975 131.437 203.093C128.01 189.597 129.326 174.999 136.55 162.928C141.986 153.846 151.219 145.565 161.652 143.035Q162.673 142.788 163.705 142.591Q164.736 142.395 165.777 142.25Q166.817 142.105 167.863 142.011Q168.909 141.918 169.959 141.877Q171.008 141.836 172.058 141.846Q173.109 141.857 174.157 141.92Q175.205 141.983 176.249 142.098Q177.293 142.213 178.33 142.379Q179.367 142.546 180.395 142.763Q181.422 142.981 182.438 143.249Q183.453 143.518 184.454 143.836Q185.455 144.154 186.439 144.522Q187.423 144.889 188.387 145.305Q189.352 145.721 190.294 146.185Q191.237 146.648 192.155 147.157Q193.074 147.667 193.966 148.221C200.158 152.105 205.683 157.953 207.219 165.302Q207.331 165.829 207.415 166.361Q207.5 166.893 207.556 167.429Q207.613 167.964 207.642 168.502Q207.671 169.04 207.671 169.579Q207.672 170.117 207.645 170.655Q207.618 171.193 207.563 171.729Q207.508 172.265 207.425 172.797Q207.343 173.33 207.232 173.857Q207.122 174.384 206.985 174.905Q206.847 175.426 206.683 175.939Q206.519 176.452 206.328 176.956Q206.137 177.459 205.921 177.953Q205.704 178.446 205.462 178.927Q205.221 179.409 204.954 179.877Q204.687 180.345 204.397 180.798Q204.107 181.252 203.793 181.69C200.978 185.685 196.744 188.485 191.905 189.296C188.698 189.834 185.094 190.36 182.297 188.416C182.382 187.209 182.833 187.666 183.85 187.484C188.773 186.604 192.567 186.084 196.161 182.197C198.901 179.235 200.17 175.619 200.02 171.598C199.805 165.806 196.891 160.345 192.652 156.479C187.287 151.587 179.797 149.256 172.598 149.753C164.158 150.336 157.081 154.847 151.615 161.089C145.684 167.862 141.9 176.942 142.561 186.032C143.68 201.434 155.314 216.096 166.625 225.707C196.914 251.445 245.478 251.326 283.102 248.296C277.472 244.086 271.7 239.828 266.485 235.11C257.011 226.537 246.842 211.972 233.816 209.22C230.247 208.466 225.817 208.745 222.718 210.848C219.694 212.9 218.919 216.151 218.255 219.537C219.89 219.399 221.094 218.103 222.326 217.113C222.597 216.968 222.866 216.819 223.14 216.679C225.283 215.581 228.053 214.942 230.392 215.773C232.397 216.484 233.836 218.185 234.608 220.12C235.872 223.287 235.439 226.998 234.029 230.04C232.735 232.831 230.57 235.326 227.602 236.356C224.096 237.572 220.248 236.442 217.039 234.897C212.184 232.56 208.431 228.597 206.723 223.443Q206.439 222.558 206.242 221.649Q206.045 220.74 205.937 219.816Q205.829 218.892 205.811 217.963Q205.794 217.033 205.866 216.106Q205.939 215.179 206.101 214.263Q206.263 213.347 206.513 212.452Q206.763 211.556 207.099 210.689Q207.435 209.822 207.853 208.991C210.476 203.749 215.759 199.427 221.307 197.641C230.974 194.528 238.796 198.131 247.132 202.61C240.756 180.409 237.808 159.275 241.624 136.248C242.659 130.005 243.925 123.491 246.306 117.605C242.274 143.035 250.594 170.745 263.819 192.384C267.309 178.537 271.045 164.969 283.35 156.28C289.57 151.888 297.388 148.774 305.083 150.291Q306.066 150.495 307.026 150.793Q307.985 151.092 308.91 151.481Q309.836 151.871 310.719 152.349Q311.603 152.827 312.435 153.389Q313.268 153.95 314.043 154.589Q314.817 155.229 315.526 155.94Q316.235 156.652 316.871 157.429Q317.508 158.206 318.066 159.041C321.108 163.616 321.991 169.06 320.917 174.416C319.952 179.226 317.572 183.757 313.321 186.411C309.715 188.662 304.774 189.544 300.628 188.568C297.028 187.721 293.77 185.655 291.802 182.496C291.721 182.366 291.644 182.233 291.565 182.102C291.123 181.787 290.681 181.018 290.434 180.521C289.134 177.907 288.887 174.074 289.826 171.312C291.331 166.882 296.341 165.127 300.193 163.295C299.644 162.374 299.171 161.852 298.233 161.347C294.799 159.502 291.067 160.416 287.521 161.359C278.644 168.028 273.247 178.071 271.65 189.02C269.964 200.582 273.68 209.43 280.551 218.546C293.477 235.695 312.775 249.399 332.389 258.04C356.074 235.543 384.675 223.116 417.647 223.866C424.191 224.014 430.617 224.607 436.975 226.192C444.536 215.948 451.625 208.304 463.209 202.568Z"/>
	<path fill="#18B62F" transform="scale(1.46484 1.46484)" d="M793.997 206.632C797.534 205.782 801.581 206.145 804.753 208.032C807.32 209.56 809.57 212.11 810.278 215.065C810.549 216.196 810.545 217.422 810.517 218.577C808.718 217.417 807.527 214.728 806.307 212.951C803.634 209.055 800.258 208.847 795.901 208.046L795.704 207.359L793.997 206.632Z"/>
	<path fill="#035933" transform="scale(1.46484 1.46484)" d="M710.523 159.964C712.298 156.845 715.375 155.079 718.774 154.062C724.35 152.394 729.828 153.406 734.786 156.331C737.532 157.951 741.046 160.678 741.953 163.82C739.751 162.091 737.32 160.693 734.935 159.232C734.444 158.416 734.094 158.154 733.215 157.707C730.062 156.103 724.421 155.285 721.012 156.335C719.293 155.641 717.994 155.474 716.257 156.243C714.247 157.134 712.323 158.7 710.523 159.964Z"/>
	<path fill="#003B2E" transform="scale(1.46484 1.46484)" d="M603.068 126.096C609.34 126.846 618.898 135.331 624.354 139.09C623.431 139.955 622.401 140.81 621.551 141.742C614.715 137.579 608.402 132.034 603.068 126.096Z"/>
	<path fill="#CE461D" transform="scale(1.46484 1.46484)" d="M440.401 863.565C442.363 869.555 444.943 875.315 446.917 881.297C443.476 880.324 440.217 879.276 436.942 877.834C437.109 874.389 435.898 868.551 437.231 865.547C437.93 863.971 438.91 864.02 440.401 863.565Z"/>
	<path fill="#CE461D" transform="scale(1.46484 1.46484)" d="M582.282 861.758C584.091 862.015 585.915 862.17 586.983 863.887C589.171 867.407 585.985 873.01 587.019 876.958C582.787 878.768 578.323 880.205 573.998 881.791Q578.569 871.952 582.282 861.758Z"/>
	<path fill="#035933" transform="scale(1.46484 1.46484)" d="M731.142 463.383C735.841 457.151 744.395 451.872 750.768 447.283C753.347 450.894 755.891 454.59 756.818 458.999C748.212 460.037 739.429 460.771 731.142 463.383Z"/>
	<path fill="#035933" transform="scale(1.46484 1.46484)" d="M274.852 447.679C277.886 450.542 281.015 453.347 283.744 456.507C280.42 457.716 277.26 461.077 274.241 463.051C270.516 465.487 266.637 467.353 262.594 469.195C264.376 461.302 270.156 454.089 274.852 447.679Z"/>
	<path fill="#3EEE30" transform="scale(1.46484 1.46484)" d="M290.054 557.12C297.398 558.786 343.797 582.647 346.702 587.043C326.186 583.23 304.783 571.973 290.054 557.12Z"/>
	<path fill="#009531" transform="scale(1.46484 1.46484)" d="M795.901 208.046C800.258 208.847 803.634 209.055 806.307 212.951C807.527 214.728 808.718 217.417 810.517 218.577C809.969 221.031 809.304 223.701 807.672 225.687C805.927 227.811 803.253 229.158 800.524 229.358C798.124 229.533 795.764 228.825 793.945 227.23C787.862 221.896 791.963 218.184 791.444 212.345C791.419 212.061 791.378 211.779 791.345 211.497C792.715 210.134 794.307 209.12 795.901 208.046Z"/>
	<path fill="#3EEE30" transform="scale(1.46484 1.46484)" d="M650.444 590.994C652.322 589.613 655.447 589.377 657.654 588.44C663.203 586.084 668.413 583.404 674.223 581.668C685.015 578.445 696.44 576.762 707.031 572.982C714.098 570.46 719.225 563.341 727.368 563.64C706.806 581.726 677.875 592.375 650.444 590.994Z"/>
	<path fill="#009531" transform="scale(1.46484 1.46484)" d="M222.326 217.113L223.078 217.28C226.051 217.951 229.265 218.997 230.949 221.763C231.791 223.144 231.928 224.722 231.487 226.269C230.769 228.789 228.737 231.006 226.439 232.2C223.823 233.559 220.728 233.668 217.962 232.704C215.04 231.685 213.062 229.411 211.862 226.621C209.721 221.645 209.462 215.916 211.553 210.885C213.601 205.958 217.588 202.479 222.554 200.649C228.196 198.57 233.861 199.352 239.204 201.9C246.726 205.487 252.553 211.65 258.186 217.622C248.966 212.316 236.678 202.014 225.211 205.292C221.474 206.361 218.363 209.194 216.486 212.555C214.882 215.428 214.558 219.528 215.532 222.66C215.816 223.574 216.163 224.216 216.952 224.779L218.348 223.864C218.379 223.131 218.294 222.806 218.097 222.09C217.857 221.219 217.874 220.38 218.255 219.537C219.89 219.399 221.094 218.103 222.326 217.113Z"/>
	<path fill="#009531" transform="scale(1.46484 1.46484)" d="M287.521 161.359C289.89 157.985 293.052 156.084 297.12 155.365C301.651 154.565 306.772 155.133 310.568 157.898C314.022 160.415 316.128 164.306 316.598 168.532C317.07 172.767 315.755 177.239 312.992 180.495C310.71 183.182 307.57 184.833 304.036 185.027C300.275 185.233 297.152 183.997 294.007 182.077C293.425 180.482 292.154 179.284 291.79 177.513C289.652 167.13 298.896 166.941 301.223 163.625L300.193 163.295C299.644 162.374 299.171 161.852 298.233 161.347C294.799 159.502 291.067 160.416 287.521 161.359Z"/>
	<path fill="#009531" transform="scale(1.46484 1.46484)" d="M710.523 159.964C712.323 158.7 714.247 157.134 716.257 156.243C717.994 155.474 719.293 155.641 721.012 156.335C718.541 157.384 716.367 158.804 715.251 161.354L715.656 162.373C717.41 163.131 721.248 161.059 723.523 161C725.117 162.219 727.998 162.494 729.909 163.265C732.212 164.195 733.666 165.747 734.555 168.066C736.014 171.874 735.863 176.871 734.059 180.537C732.384 183.942 729.228 186.291 725.632 187.364C721.384 188.632 716.978 188.108 713.164 185.835C709.675 183.756 706.995 180.485 706.001 176.514C704.406 170.139 707.243 165.168 710.523 159.964Z"/>
	<path fill="#FCED70" transform="scale(1.46484 1.46484)" d="M360.122 271.24C371.791 263.184 384.337 258.106 398.162 254.996C417.055 250.747 435.613 253.645 451.975 264.042L451.31 264.06C445.301 264.185 439.317 263.437 433.311 263.469C415.788 263.564 397.809 267.359 381.958 274.896C374.781 274.645 367.188 272.601 360.122 271.24Z"/>
	<path fill="#FCED70" transform="scale(1.46484 1.46484)" d="M341.719 753.286Q340.092 749.261 338.561 745.199C335.259 736.378 332.945 727.287 330.616 718.172Q327.671 706.979 325.395 695.631Q323.119 684.282 321.52 672.819Q319.921 661.356 319.005 649.818Q318.088 638.28 317.858 626.708C317.788 622.694 316.344 616.727 317.972 613.159C319.369 612.412 320.234 612.911 321.756 613.218C323.834 621.089 323.476 636.428 324.446 645.507Q325.425 654.945 326.928 664.314Q328.431 673.684 330.454 682.954Q332.476 692.225 335.012 701.369Q337.548 710.513 340.59 719.501C342.662 725.586 344.675 733.06 349.244 737.762L341.719 753.286Z"/>
	<path fill="#FCED70" transform="scale(1.46484 1.46484)" d="M571.786 264.24C583.458 254.892 599.185 249.733 614.145 251.36C633.025 253.413 649.872 262.628 666.095 271.846C657.049 272.472 647.6 273.064 638.805 275.35C628.518 268.354 602.012 263.683 589.919 263.408C584.038 263.273 578.217 264.313 572.344 264.251L571.786 264.24Z"/>
	<path fill="#CE461D" transform="scale(1.46484 1.46484)" d="M571.786 264.24L572.344 264.251C578.217 264.313 584.038 263.273 589.919 263.408C602.012 263.683 628.518 268.354 638.805 275.35C624.926 277.565 609.383 283.065 597.912 291.291C587.348 282.955 576.398 276.067 564.222 270.326C566.666 268.146 569.047 266.047 571.786 264.24Z"/>
	<path fill="#CE461D" transform="scale(1.46484 1.46484)" d="M447.633 858.177C455.867 859.524 463.946 861.486 472.233 862.66C508.144 867.747 538.882 865.07 574.011 856.661C572.59 860.356 571.239 864.099 569.711 867.751C529.801 875.598 490.513 874.992 450.555 867.775C449.591 864.582 448.707 861.333 447.633 858.177Z"/>
	<path fill="#CE461D" transform="scale(1.46484 1.46484)" d="M381.958 274.896C397.809 267.359 415.788 263.564 433.311 263.469C439.317 263.437 445.301 264.185 451.31 264.06L451.975 264.042Q453.974 265.307 455.791 266.821Q457.609 268.335 459.214 270.073C446.553 276.393 434.802 283.096 423.458 291.575C409.971 284.307 396.788 278.852 381.958 274.896Z"/>
	<path fill="#FCED70" transform="scale(1.46484 1.46484)" d="M698.021 614.214L705.539 612.367C705.539 647.232 702.869 681.052 694.101 714.92C691.079 726.594 686.891 737.797 683.585 749.344C680.316 744.159 677.282 738.901 674.343 733.523C679.269 727.345 681.821 719.328 684.269 711.898C694.749 680.085 698.023 647.548 698.021 614.214Z"/>
	<path fill="#FCED70" transform="scale(1.46484 1.46484)" d="M444.251 848.017C455.18 850.019 465.955 852.342 476.999 853.689C511.314 857.876 544.499 853.884 578.055 846.469L574.011 856.661C538.882 865.07 508.144 867.747 472.233 862.66C463.946 861.486 455.867 859.524 447.633 858.177C447.089 854.867 445.37 851.216 444.251 848.017Z"/>
	<path fill="#CE461D" transform="scale(1.46484 1.46484)" d="M276.764 587.484C286.384 594.717 295.121 602.045 306.052 607.311C305.928 626.285 307.011 644.576 309.54 663.37C304.137 660.796 298.154 658.406 293.361 654.788C292.733 647.982 287.467 639.503 285.65 632.374C281.858 617.498 279.921 602.456 276.764 587.484Z"/>
	<path fill="#CE461D" transform="scale(1.46484 1.46484)" d="M743.832 591.091C743.382 600.612 743.051 610.173 742.24 619.67C741.85 624.239 738.347 646.838 739.543 649.448C731.548 654.735 722.644 659.128 714.255 663.785C715.013 645.472 715.619 627.352 715.4 609.015C725.854 603.99 734.808 598.337 743.832 591.091Z"/>
	<path fill="#FEFEFE" transform="scale(1.46484 1.46484)" d="M595.561 28.5378C595.331 28.7538 595.105 28.9748 594.869 29.1857C589.083 34.372 579.92 37.6063 573.089 41.4944C568.686 44.0005 564.544 47.1145 560.549 50.2272C549.733 58.6559 539.1 67.9493 530.177 78.3933C504.91 107.967 485.648 153.7 482.346 192.367C481.718 199.721 482.172 208.344 476.147 213.546C473.293 216.01 470.104 218.069 467.216 220.495C457.407 228.733 453.012 238.403 449.137 250.34L439.013 245.94C447.847 228.062 455.408 216.867 474.372 209.446C471.56 173.75 488.559 126.226 508.448 96.718C525.514 71.3976 546.788 50.3759 574.322 36.6298C581.164 33.2143 588.019 30.0002 595.561 28.5378Z"/>
	<defs>
		<linearGradient id="gradient_4" gradientUnits="userSpaceOnUse" x1="717.14716" y1="597.51184" x2="660.41888" y2="460.29025">
			<stop offset="0" stop-color="#FF821C"/>
			<stop offset="1" stop-color="#FF592B"/>
		</linearGradient>
	</defs>
	<path fill="url(#gradient_4)" transform="scale(1.46484 1.46484)" d="M799.512 389.389C800.68 399.582 800.189 409.973 800.35 420.214C801.121 469.22 795.178 519.448 763.662 559.092C741.919 586.442 711.397 607.011 676.124 610.973C640.662 614.956 607.547 603.473 577.956 584.761C572.419 581.26 565.599 573.577 559.638 571.825C557.36 570.923 554.887 568.852 553.013 567.279C548.908 563.835 532.837 549.867 532.439 545.58L533.891 545.164C564.06 568.069 591.359 591.55 629.774 599.045C636.578 600.373 643.855 601.547 650.803 601.462C660.85 601.055 670.785 600.443 680.673 598.461C720.468 590.483 747.921 563.25 769.707 530.788C773.476 522.362 777.477 513.942 780.801 505.327C790.23 480.896 795.355 455.144 797.431 429.1C798.479 415.949 797.419 402.404 799.512 389.389Z"/>
	<path fill="#FCED70" transform="scale(1.46484 1.46484)" d="M769.707 530.788C770.45 538.134 757.876 556.013 752.956 562.026Q752.042 563.15 751.101 564.251Q750.16 565.352 749.192 566.429Q748.224 567.507 747.23 568.56Q746.236 569.613 745.217 570.642Q744.197 571.671 743.153 572.674Q742.108 573.677 741.039 574.654Q739.97 575.632 738.877 576.582Q737.785 577.533 736.669 578.457Q735.553 579.38 734.415 580.276Q733.277 581.172 732.118 582.039Q730.958 582.907 729.777 583.746Q728.596 584.585 727.396 585.394Q726.195 586.204 724.974 586.984Q723.754 587.763 722.514 588.513Q721.275 589.263 720.018 589.981Q718.76 590.7 717.486 591.388Q716.211 592.076 714.92 592.732Q713.629 593.388 712.322 594.013Q711.015 594.637 709.693 595.229Q708.371 595.821 707.035 596.38Q705.699 596.94 704.35 597.466Q703.001 597.992 701.639 598.485Q700.277 598.978 698.904 599.438Q697.53 599.897 696.146 600.322Q694.761 600.748 693.367 601.139Q691.972 601.531 690.569 601.887Q689.165 602.244 687.753 602.567Q686.341 602.889 684.921 603.177Q683.502 603.464 682.076 603.717Q680.649 603.969 679.218 604.187Q677.786 604.404 676.349 604.586Q674.912 604.768 673.471 604.915C667.594 605.503 656.727 606.757 651.849 602.575C651.373 602.166 651.184 601.913 650.803 601.462C660.85 601.055 670.785 600.443 680.673 598.461C720.468 590.483 747.921 563.25 769.707 530.788Z"/>
	<defs>
		<linearGradient id="gradient_5" gradientUnits="userSpaceOnUse" x1="384.38586" y1="388.36865" x2="332.01135" y2="372.29858">
			<stop offset="0" stop-color="#FB771D"/>
			<stop offset="1" stop-color="#E35728"/>
		</linearGradient>
	</defs>
	<path fill="url(#gradient_5)" transform="scale(1.46484 1.46484)" d="M401.553 293.359C405.626 295.47 409.673 297.718 413.82 299.675C406.126 307.793 398.43 315.846 391.432 324.585C367.165 354.887 348.847 390.823 336.277 427.472C331.359 441.81 327.771 456.35 323.201 470.746C317.569 466.263 311.868 462.118 305.829 458.191C307.669 453.533 308.61 448.269 309.912 443.424Q313.175 431.256 317.269 419.341C330.942 379.934 353.499 337.714 383.614 308.365C389.201 302.919 395.417 298.159 401.553 293.359Z"/>
	<path fill="#CE461D" transform="scale(1.46484 1.46484)" d="M607.685 298.512C612.387 296.464 617.141 294.527 621.858 292.51C630.194 298.869 638.474 304.633 646 312.05C674.428 340.065 694.857 382.577 707.427 419.986Q711.458 432.139 714.559 444.561C715.526 448.449 716.025 453.901 717.611 457.421C712.089 461.891 706.236 465.902 700.419 469.972C690.226 418.733 668.35 367.659 634.956 327.157C626.514 316.917 617.176 307.757 607.685 298.512Z"/>
	<defs>
		<linearGradient id="gradient_6" gradientUnits="userSpaceOnUse" x1="305.37543" y1="597.56873" x2="365.9454" y2="437.61456">
			<stop offset="0" stop-color="#FF8823"/>
			<stop offset="1" stop-color="#F44829"/>
		</linearGradient>
	</defs>
	<path fill="url(#gradient_6)" transform="scale(1.46484 1.46484)" d="M224.698 391.948Q225.712 385.159 227.738 378.601C228.667 392.2 226.465 405.404 226.432 418.94C226.341 455.37 233.485 491.834 250.178 524.395C253.23 530.349 256.945 536.032 260.445 541.731C285.378 572.65 314.16 594.534 355.033 598.977C378.979 601.58 401.431 596.816 423.862 588.754C432.509 583.837 441.648 579.863 450.042 574.497C462.344 566.635 473.259 556.955 484.905 548.214C482.034 556.577 467.723 571.271 459.898 575.159C459.753 575.231 459.586 575.248 459.43 575.293C453.855 577.585 448.144 582.658 442.883 585.893C437.946 588.929 430.768 592.262 426.354 595.582C419.094 598.858 411.794 602.23 404.248 604.8C379.37 613.273 352.102 614.485 326.942 606.65C299.959 598.246 274.442 579.001 258.186 555.945C250.613 545.205 244.685 533.497 238.64 521.862Q234.958 512.733 231.801 503.409C220.811 473.84 217.911 422.455 224.698 391.948Z"/>
	<path fill="#FCED70" transform="scale(1.46484 1.46484)" d="M260.445 541.731C285.378 572.65 314.16 594.534 355.033 598.977C378.979 601.58 401.431 596.816 423.862 588.754C423.521 589.579 423.225 589.813 422.474 590.342C418.872 592.88 414.126 594.751 410.065 596.533C388.788 605.868 365.95 610.069 342.885 605.736C306.717 598.942 276.828 576.076 256.275 546.262L260.445 541.731Z"/>
	<path fill="#035933" transform="scale(1.46484 1.46484)" d="M597.098 37.9731L597.699 38.1311C612.38 41.8478 628.875 53.2038 641.982 60.8607C649.394 65.1908 657.019 69.2094 664.581 73.274C664.704 88.9904 666.089 104.65 666.512 120.359C662.112 123.205 657.374 125.636 652.868 128.331C645.281 132.868 637.344 138.71 628.966 141.587C626.157 142.552 624.283 143.033 621.551 141.742C622.401 140.81 623.431 139.955 624.354 139.09C637.628 133.16 648.48 122.912 662.61 118.851C661.691 113.681 661.259 108.505 661.099 103.258C660.872 95.8369 662.139 82.2271 659.628 75.7224C658.923 73.8974 656.75 72.38 655.203 71.3125C650.19 67.852 644.338 65.2062 638.923 62.4054C627.014 56.2465 611.898 46.7326 597.867 49.8357C585.279 52.6196 559.07 82.6158 552.31 93.7828C539.384 115.133 527.628 161.358 533.803 185.774C535.844 193.84 539.622 200.989 547.069 205.299C551.776 208.023 557.296 209.137 562.264 211.307C576.01 217.313 582.808 230.906 589.87 243.215C576.108 248.63 563.766 255.114 554.156 266.722C557.459 243.802 552.345 233.675 538.676 215.435C535.989 211.85 533.321 208.196 530.433 204.771C539.96 227.866 544.319 237.739 542.167 263.275C538.296 262.56 534.433 261.806 530.52 261.346C545.48 242.627 524.522 209.924 521.481 189.358C519.301 174.623 521.481 159.912 523.745 145.339C512.168 166.229 512.098 182.47 514.676 205.455Q512.688 200.947 511.24 196.237C502.13 166.823 512.916 133.861 526.953 107.738C538.476 86.2944 574.346 44.8547 597.098 37.9731Z"/>
	<path fill="#FCED70" transform="scale(1.46484 1.46484)" d="M256.611 751.955C252.902 746.55 247.734 742.003 243.672 736.827C236.571 727.781 205.107 684.096 204.619 674.857C204.578 674.074 205.053 673.916 205.567 673.411Q208.745 678.766 212.098 684.013Q215.451 689.26 218.974 694.395Q222.498 699.529 226.188 704.545Q229.878 709.561 233.731 714.452Q237.584 719.344 241.596 724.107Q245.608 728.869 249.774 733.497Q253.94 738.125 258.256 742.614Q262.572 747.103 267.033 751.447Q271.494 755.791 276.096 759.987Q280.698 764.182 285.435 768.224Q290.172 772.266 295.039 776.15Q299.906 780.033 304.898 783.755Q309.891 787.477 315.003 791.033Q320.115 794.589 325.341 797.975Q330.567 801.36 335.901 804.573Q341.236 807.785 346.673 810.82C358.805 817.71 370.967 824.888 384.106 829.719C396.103 813.596 405.735 795.591 416.79 778.788C421.611 800.052 426.89 820.807 433.291 841.659C436.196 848.672 438.148 856.309 440.401 863.565C438.91 864.02 437.93 863.971 437.231 865.547C435.898 868.551 437.109 874.389 436.942 877.834C415.097 868.851 393.988 858.663 372.633 848.622L375.957 844.643C377.357 843.567 378.633 841.866 379.854 840.565C377.817 839.356 375.733 838.241 373.65 837.115C374.333 839.019 375.272 840.914 374.99 842.966C374.625 843.537 374.29 844.139 373.849 844.654C371.134 844.24 368.626 843.579 366.114 842.468C349.205 834.991 296.29 799.762 284.181 786.589C285.576 787.07 287.304 788.712 288.626 788.66C288.991 787.644 289.184 786.87 289.146 785.795C289.007 781.805 266.694 764.224 262.534 760.266C260.46 758.293 256.706 754.886 256.611 751.955Z"/>
	<path fill="#CE461D" transform="scale(1.46484 1.46484)" d="M284.181 786.589C285.576 787.07 287.304 788.712 288.626 788.66C288.991 787.644 289.184 786.87 289.146 785.795C289.007 781.805 266.694 764.224 262.534 760.266C260.46 758.293 256.706 754.886 256.611 751.955C277.586 775.614 309.59 799.821 336.66 816.509C341.561 819.531 346.496 822.542 351.552 825.301C356.073 827.769 371.166 834.379 373.65 837.115C374.333 839.019 375.272 840.914 374.99 842.966C374.625 843.537 374.29 844.139 373.849 844.654C371.134 844.24 368.626 843.579 366.114 842.468C349.205 834.991 296.29 799.762 284.181 786.589Z"/>
	<path fill="#FDA619" transform="scale(1.46484 1.46484)" d="M380.229 846.068C393.032 832.598 407.047 807.817 416.459 791.281C417.985 798.827 426.653 837.759 431.587 841.442C432.089 841.817 432.697 841.661 433.291 841.659C436.196 848.672 438.148 856.309 440.401 863.565C438.91 864.02 437.93 863.971 437.231 865.547C435.898 868.551 437.109 874.389 436.942 877.834C415.097 868.851 393.988 858.663 372.633 848.622L375.957 844.643C377.357 843.567 378.633 841.866 379.854 840.565C380.034 842.402 380.17 844.222 380.229 846.068Z"/>
	<path fill="#FDA619" transform="scale(1.46484 1.46484)" d="M339.395 838.473C343.532 840.611 347.292 842.935 350.934 845.844C353.659 852.18 359.891 858.7 364.161 864.065C387.674 893.606 416.408 918.903 451.86 932.989Q453.641 933.715 455.439 934.397Q457.237 935.078 459.051 935.716Q460.866 936.353 462.695 936.945Q464.525 937.537 466.368 938.084Q468.212 938.631 470.069 939.133Q471.925 939.634 473.794 940.089Q475.662 940.545 477.541 940.954Q479.42 941.363 481.308 941.726Q483.197 942.088 485.094 942.404Q486.991 942.72 488.895 942.99Q490.799 943.259 492.709 943.481Q494.619 943.703 496.534 943.878Q498.449 944.052 500.368 944.18Q502.287 944.308 504.208 944.388Q506.13 944.468 508.052 944.501Q509.975 944.534 511.898 944.519Q513.821 944.504 515.743 944.442Q517.665 944.38 519.585 944.271Q521.505 944.162 523.422 944.005Q525.338 943.848 527.25 943.644Q529.163 943.44 531.069 943.189Q532.976 942.938 534.876 942.64Q536.775 942.342 538.667 941.997Q540.559 941.652 542.442 941.261Q544.325 940.87 546.197 940.432Q548.07 939.994 549.931 939.511Q551.792 939.027 553.641 938.498Q555.49 937.968 557.325 937.393Q559.16 936.818 560.98 936.198Q562.8 935.578 564.605 934.914Q566.409 934.249 568.197 933.54Q569.984 932.831 571.754 932.078C604.336 918.01 632.449 894.415 654.137 866.524C657.986 861.574 662.752 856.263 665.427 850.581L678.151 842.065Q677.809 843.1 677.431 844.122C661.08 888.746 620.179 931.2 577.162 951.03C539.653 968.32 497.38 970.935 458.529 956.4C415.962 940.475 382.861 908.495 358.078 871.114C351.211 860.757 344.546 849.795 339.395 838.473Z"/>
	<path fill="#FCED70" transform="scale(1.46484 1.46484)" d="M624.944 291.681C662.886 278.631 709.495 280.883 745.509 298.62C793.478 322.244 829.547 367.404 853.157 414.384C857.995 424.011 862.903 434.068 866.44 444.258C866.568 444.627 866.674 445.004 866.775 445.381C874.558 460.459 877.634 477.074 882.193 493.209C882.528 494.395 882.957 495.449 883.786 496.38L884.547 498.013C883.836 499.672 883.508 500.146 881.958 501.072C880.802 500.909 880.375 500.497 879.406 499.859C880.246 510.327 884.094 520.134 885.651 530.483C879.912 516.287 876.775 498.019 872.013 482.927C857.361 436.491 832.961 397.541 799.317 362.581C798.643 364.285 798.431 365.994 798.166 367.799C793.971 377.104 788.26 385.148 782.169 393.27C780.075 390.516 778.55 386.721 776.91 383.645Q772.845 375.847 767.909 368.569C744.41 334.08 711.294 305.861 670.029 295.905C662.428 294.071 654.718 293.35 646.929 292.898C641.515 292.583 630.111 293.741 625.607 291.97C625.383 291.881 625.165 291.777 624.944 291.681Z"/>
	<path fill="#FDA619" transform="scale(1.46484 1.46484)" d="M866.775 445.381C874.558 460.459 877.634 477.074 882.193 493.209C882.528 494.395 882.957 495.449 883.786 496.38L884.547 498.013C883.836 499.672 883.508 500.146 881.958 501.072C880.802 500.909 880.375 500.497 879.406 499.859Q877.037 489.105 874.024 478.514C871.703 470.328 864.847 453.488 866.775 445.381Z"/>
	<path fill="#FCED70" transform="scale(1.46484 1.46484)" d="M133.8 527.993C135.167 509.595 141.446 490.216 147.06 472.756C167.305 409.792 204.017 350.129 258.472 311.235C266.749 305.324 275.357 299.409 284.444 294.809C316.298 278.683 362.672 280.84 396.058 291.823C395.912 291.862 395.767 291.904 395.62 291.94C390.097 293.298 382.933 292.117 377.195 292.125C371.438 292.134 365.652 292.638 359.937 293.327C321.372 297.973 284.459 324.413 264.046 357.029C259.461 364.355 255.412 372.346 252.406 380.46C250.265 386.242 248.699 392.831 245.664 398.187Q240.536 391.727 235.931 384.884Q231.325 378.042 227.27 370.86L226.397 369.32L225.523 369.264C218.377 376.37 212.149 384.979 206.089 393.029Q197.372 404.474 189.359 416.424Q181.346 428.373 174.067 440.783Q166.787 453.192 160.268 466.018Q153.748 478.843 148.012 492.037Q144.666 499.52 141.94 507.25C139.998 512.771 138.071 522.714 134.774 527.184C134.394 527.699 134.337 527.663 133.8 527.993Z"/>
	<path fill="#18B62F" transform="scale(1.46484 1.46484)" d="M595.561 28.5378C605.492 33.5225 614.613 39.679 624.227 45.2069C639.125 53.7721 654.255 61.8418 668.996 70.6928C669.402 88.3991 670.098 105.879 672.141 123.489C657.996 131.843 638.426 144.965 623.714 150.505C609.47 140.2 597.894 129.662 588.953 114.305C596.35 106.602 604.144 98.8027 610.527 90.2209C616.502 94.0909 622.444 98.2941 627.311 103.535C623.265 100.75 616.912 95.3271 611.74 96.3247C610.421 96.5791 609.22 97.2869 608.25 98.2027C606.163 100.173 604.639 103.029 602.903 105.325C600.152 108.962 597.044 112.028 593.653 115.062C596.389 118.68 599.499 123.305 603.068 126.096C608.402 132.034 614.715 137.579 621.551 141.742C624.283 143.033 626.157 142.552 628.966 141.587C637.344 138.71 645.281 132.868 652.868 128.331C657.374 125.636 662.112 123.205 666.512 120.359C666.089 104.65 664.704 88.9904 664.581 73.274C657.019 69.2094 649.394 65.1908 641.982 60.8607C628.875 53.2038 612.38 41.8478 597.699 38.1311L597.098 37.9731C574.346 44.8547 538.476 86.2944 526.953 107.738C512.916 133.861 502.13 166.823 511.24 196.237Q512.688 200.947 514.676 205.455C512.098 182.47 512.168 166.229 523.745 145.339C521.481 159.912 519.301 174.623 521.481 189.358C524.522 209.924 545.48 242.627 530.52 261.346C516.619 258.793 501.597 260.371 487.645 262.131C483.691 253.527 484.197 244.415 485.442 235.262C483.747 227.884 492.533 204.827 494.004 195.149C478.306 221.656 468.299 233.923 472.203 266.186C465.051 260.141 457.685 254.297 449.137 250.34C453.012 238.403 457.407 228.733 467.216 220.495C470.104 218.069 473.293 216.01 476.147 213.546C482.172 208.344 481.718 199.721 482.346 192.367C485.648 153.7 504.91 107.967 530.177 78.3933C539.1 67.9493 549.733 58.6559 560.549 50.2272C564.544 47.1145 568.686 44.0005 573.089 41.4944C579.92 37.6063 589.083 34.372 594.869 29.1857C595.105 28.9748 595.331 28.7538 595.561 28.5378Z"/>
	<path fill="#FEFEFE" transform="scale(1.46484 1.46484)" d="M485.442 235.262C488.967 224.653 492.719 214.95 498.863 205.514C495.878 216.262 490.494 226.639 488.751 237.66C487.465 245.793 489.279 254.021 487.645 262.131C483.691 253.527 484.197 244.415 485.442 235.262Z"/>
	<path fill="#18B62F" transform="scale(1.46484 1.46484)" d="M731.142 463.383C739.429 460.771 748.212 460.037 756.818 458.999C763.952 483.854 763.8 511.13 751.001 534.303C746.797 541.913 734.849 559.315 727.368 563.64C719.225 563.341 714.098 570.46 707.031 572.982C696.44 576.762 685.015 578.445 674.223 581.668C668.413 583.404 663.203 586.084 657.654 588.44C655.447 589.377 652.322 589.613 650.444 590.994C636.795 591.767 614.453 585.021 602.17 578.906C595.1 575.385 588.533 570.935 581.909 566.657C577.335 565.631 568.303 556.457 564.333 553.185C576.729 548.643 589.486 545.122 601.805 540.304C608.971 537.501 618.969 530.943 626.095 529.675L632.957 526.227C634.508 529.214 636.076 532.192 637.906 535.021Q638.472 535.914 639.081 536.777Q639.691 537.641 640.343 538.473Q640.994 539.305 641.687 540.103Q642.379 540.902 643.11 541.665Q643.841 542.428 644.61 543.154Q645.378 543.88 646.182 544.566Q646.985 545.253 647.822 545.899Q648.658 546.545 649.526 547.148Q650.394 547.751 651.291 548.311Q652.187 548.87 653.111 549.385Q654.034 549.899 654.982 550.366Q655.93 550.834 656.9 551.254Q657.87 551.673 658.859 552.044Q659.849 552.415 660.856 552.737Q661.863 553.058 662.885 553.329Q663.906 553.599 664.94 553.819C675.079 555.975 686.045 554.168 694.719 548.446C704.463 542.018 710.837 531.787 713.058 520.397C715.752 506.576 713.282 494.801 705.574 483.212C714.382 476.793 722.98 470.678 731.142 463.383Z"/>
	<path fill="#035933" transform="scale(1.46484 1.46484)" d="M564.333 553.185C576.729 548.643 589.486 545.122 601.805 540.304C608.971 537.501 618.969 530.943 626.095 529.675C620.644 535.617 605.038 540.682 597.174 542.832C594.646 545.784 592.134 548.771 589.099 551.222C585.563 554.075 579.68 556.835 577.034 560.459C577.235 561.649 577.385 562.331 578.389 563.165C578.696 563.42 579.117 563.524 579.487 563.642C582.767 561.886 585.131 560.047 588.724 558.847C587.033 560.065 584.507 561.436 583.498 563.27L584.387 563.356C585.103 563.432 585.713 563.515 586.401 563.695L586.3 564.305C584.825 565.027 583.144 565.586 581.909 566.657C577.335 565.631 568.303 556.457 564.333 553.185Z"/>
	<defs>
		<linearGradient id="gradient_7" gradientUnits="userSpaceOnUse" x1="327.61017" y1="576.46204" x2="367.41519" y2="502.91879">
			<stop offset="0" stop-color="#2CF52B"/>
			<stop offset="1" stop-color="#156A2E"/>
		</linearGradient>
	</defs>
	<path fill="url(#gradient_7)" transform="scale(1.46484 1.46484)" d="M262.594 469.195C266.637 467.353 270.516 465.487 274.241 463.051C277.26 461.077 280.42 457.716 283.744 456.507C295.866 467.846 309.403 478.17 323.279 487.254C315.635 499.393 310.728 512.164 314.068 526.638Q314.292 527.569 314.562 528.488Q314.832 529.408 315.148 530.312Q315.463 531.216 315.824 532.104Q316.184 532.991 316.588 533.86Q316.992 534.728 317.44 535.576Q317.887 536.423 318.375 537.247Q318.864 538.07 319.393 538.869Q319.923 539.667 320.491 540.438Q321.06 541.209 321.666 541.951Q322.272 542.693 322.915 543.403Q323.557 544.114 324.234 544.791Q324.912 545.469 325.622 546.111Q326.332 546.754 327.073 547.361Q327.815 547.968 328.585 548.536Q329.356 549.105 330.154 549.635Q330.952 550.165 331.776 550.654Q332.619 551.17 333.486 551.643Q334.353 552.117 335.244 552.546Q336.134 552.974 337.044 553.358Q337.955 553.742 338.884 554.079Q339.813 554.416 340.757 554.706Q341.702 554.996 342.66 555.239Q343.618 555.481 344.587 555.675Q345.556 555.868 346.533 556.013Q347.511 556.158 348.494 556.253Q349.478 556.348 350.465 556.394Q351.452 556.44 352.44 556.436Q353.428 556.432 354.415 556.378Q355.401 556.324 356.384 556.221Q357.367 556.118 358.343 555.965Q359.319 555.812 360.287 555.611Q361.254 555.409 362.21 555.159C378.444 550.987 385.626 539.132 395.429 526.723C407.205 532.91 419.423 539.314 431.833 544.104C442.36 548.167 453.433 551.219 464.275 554.327C428.538 576.951 392.027 596.791 348.164 587.458C347.346 587.284 347.607 587.34 346.702 587.043C343.797 582.647 297.398 558.786 290.054 557.12C283.298 551.923 276.734 542.427 272.282 535.202C259.542 514.523 257.122 492.652 262.594 469.195Z"/>
	<path fill="#FDA619" transform="scale(1.46484 1.46484)" d="M621.858 292.51L624.944 291.681C625.165 291.777 625.383 291.881 625.607 291.97C630.111 293.741 641.515 292.583 646.929 292.898C654.718 293.35 662.428 294.071 670.029 295.905C711.294 305.861 744.41 334.08 767.909 368.569Q772.845 375.847 776.91 383.645C778.55 386.721 780.075 390.516 782.169 393.27C763.201 417.974 741.937 438.065 717.611 457.421C716.025 453.901 715.526 448.449 714.559 444.561Q711.458 432.139 707.427 419.986C694.857 382.577 674.428 340.065 646 312.05C638.474 304.633 630.194 298.869 621.858 292.51Z"/>
	<path fill="#FDA619" transform="scale(1.46484 1.46484)" d="M396.058 291.823L401.553 293.359C395.417 298.159 389.201 302.919 383.614 308.365C353.499 337.714 330.942 379.934 317.269 419.341Q313.175 431.256 309.912 443.424C308.61 448.269 307.669 453.533 305.829 458.191C283.091 440.205 262.767 421.725 245.664 398.187C248.699 392.831 250.265 386.242 252.406 380.46C255.412 372.346 259.461 364.355 264.046 357.029C284.459 324.413 321.372 297.973 359.937 293.327C365.652 292.638 371.438 292.134 377.195 292.125C382.933 292.117 390.097 293.298 395.62 291.94C395.767 291.904 395.912 291.862 396.058 291.823Z"/>
	<path fill="#CE461D" transform="scale(1.46484 1.46484)" d="M350.934 845.844C359.949 850.034 367.954 855.837 376.661 860.552C399.85 873.106 434.051 888.62 459.953 894.422C458.179 888.738 456.405 882.994 454.182 877.467C494.909 884.039 525.241 884.152 566.036 878.02C563.713 883.844 561.417 889.629 559.534 895.615Q578.922 890.076 597.729 882.804Q616.536 875.533 634.608 866.59C644.896 861.548 654.615 854.32 665.427 850.581C662.752 856.263 657.986 861.574 654.137 866.524C632.449 894.415 604.336 918.01 571.754 932.078Q569.984 932.831 568.197 933.54Q566.409 934.249 564.605 934.914Q562.8 935.578 560.98 936.198Q559.16 936.818 557.325 937.393Q555.49 937.968 553.641 938.498Q551.792 939.027 549.931 939.511Q548.07 939.995 546.197 940.432Q544.325 940.87 542.442 941.261Q540.559 941.653 538.667 941.997Q536.775 942.342 534.876 942.64Q532.976 942.938 531.069 943.189Q529.163 943.44 527.25 943.644Q525.338 943.848 523.422 944.005Q521.505 944.162 519.585 944.271Q517.665 944.38 515.743 944.442Q513.821 944.505 511.898 944.519Q509.975 944.534 508.052 944.501Q506.13 944.468 504.208 944.388Q502.287 944.308 500.368 944.18Q498.449 944.052 496.534 943.878Q494.619 943.703 492.709 943.481Q490.799 943.259 488.895 942.99Q486.991 942.72 485.094 942.404Q483.197 942.088 481.308 941.726Q479.42 941.363 477.541 940.954Q475.662 940.545 473.794 940.089Q471.925 939.634 470.069 939.133Q468.212 938.631 466.368 938.084Q464.525 937.537 462.695 936.945Q460.866 936.353 459.051 935.716Q457.237 935.078 455.439 934.397Q453.641 933.715 451.86 932.989C416.408 918.903 387.674 893.606 364.161 864.065C359.891 858.7 353.659 852.18 350.934 845.844Z"/>
	<path fill="#FCED70" transform="scale(1.46484 1.46484)" d="M333.139 477.731C346.643 414.304 389.021 327.582 445.236 291.384Q446.512 290.548 447.809 289.743Q449.105 288.939 450.422 288.168Q451.738 287.396 453.073 286.658Q454.408 285.92 455.762 285.215Q457.115 284.511 458.485 283.84Q459.856 283.17 461.243 282.534Q462.629 281.898 464.032 281.297Q465.434 280.695 466.851 280.13Q468.268 279.564 469.699 279.034Q471.129 278.504 472.573 278.009Q474.016 277.515 475.472 277.057Q476.927 276.6 478.393 276.178Q479.86 275.757 481.336 275.373Q482.813 274.988 484.298 274.641Q485.784 274.293 487.278 273.983Q488.772 273.673 490.273 273.401Q491.774 273.128 493.282 272.893Q494.789 272.658 496.302 272.461Q497.815 272.264 499.332 272.105Q500.85 271.946 502.371 271.824Q503.891 271.703 505.415 271.62Q506.938 271.537 508.463 271.492Q509.988 271.447 511.514 271.441Q513.04 271.434 514.565 271.466Q516.091 271.497 517.615 271.567Q519.139 271.636 520.661 271.744Q522.183 271.852 523.701 271.998Q525.22 272.144 526.735 272.328Q528.249 272.511 529.759 272.733Q531.268 272.955 532.772 273.214Q534.275 273.474 535.772 273.771Q537.268 274.068 538.757 274.402C582.961 284.086 619.238 322.584 642.67 359.419Q647.021 366.181 651.052 373.139Q655.083 380.096 658.787 387.234Q662.49 394.371 665.858 401.673Q669.226 408.975 672.25 416.426Q675.274 423.876 677.949 431.46Q680.624 439.043 682.943 446.742Q685.262 454.442 687.221 462.241Q689.179 470.039 690.773 477.921L680.98 483.824C678.406 478.762 677.141 472.43 675.492 466.988Q672.134 455.7 667.873 444.722C647.095 390.967 608.381 339.316 554.444 315.595C527.786 303.871 501.249 302.838 474.053 313.512C422.068 333.916 383.598 380.456 360.394 429.869C355.649 439.974 351.009 450.284 347.033 460.719C344.401 467.626 342.418 474.732 339.465 481.521C337.341 480.287 335.183 479.094 333.139 477.731Z"/>
	<path fill="#FDA619" transform="scale(1.46484 1.46484)" d="M248.491 302.009C205.303 337.203 176.145 375.597 156.567 428.09C151.42 441.89 147.841 456.123 143.233 470.089L143.154 470.747C142.041 479.579 139.856 488.385 138.008 497.093Q133.471 517.48 130.535 538.159C119.539 621.298 126.603 714.763 158.853 792.628C165.142 807.813 172.055 822.863 180.347 837.071C184.477 844.145 191.799 853.573 194.827 860.583C195.266 861.536 195.334 861.435 195.195 862.572C194.705 862.666 194.58 862.728 194.017 862.625C190.732 862.026 184.583 857.714 181.347 855.856C151.916 838.958 129.26 815.768 110.627 787.545C75.2157 733.909 58.0111 673.235 55.7714 609.307C55.3392 596.968 53.8985 582.55 56.3916 570.383C56.3729 567.087 56.8446 563.816 57.2267 560.548C61.2955 531.03 67.6596 502.807 77.9308 474.79Q79.7952 469.818 81.8342 464.915Q83.8731 460.012 86.0841 455.185Q88.2951 450.357 90.6754 445.61Q93.0557 440.864 95.6023 436.204Q98.1488 431.545 100.859 426.978Q103.568 422.412 106.438 417.944Q109.307 413.476 112.333 409.112Q115.358 404.749 118.536 400.495Q121.714 396.241 125.04 392.102Q128.367 387.963 131.837 383.944Q135.308 379.925 138.918 376.031Q142.528 372.138 146.274 368.374Q150.02 364.611 153.897 360.982Q157.773 357.353 161.775 353.863Q165.778 350.374 169.901 347.028Q174.024 343.682 178.263 340.484C189.02 332.343 200.465 324.335 212.732 318.648C224.192 312.089 236.244 306.909 248.491 302.009Z"/>
	<path fill="#FFE050" transform="scale(1.46484 1.46484)" d="M56.3916 570.383C56.3729 567.087 56.8446 563.816 57.2267 560.548C58.7155 561.203 60.1605 561.502 60.9162 563.097C61.9435 565.265 60.5425 572.387 60.7402 575.531L61.3088 575.774C61.24 576.846 60.9531 577.773 60.6687 578.803C58.9164 576.992 60.5929 570.291 59.6035 567.692C59.4361 567.958 59.3205 568.264 59.1013 568.489C58.6499 568.953 58.0514 569.251 57.578 569.692C57.3781 569.878 57.1825 570.069 56.9847 570.257L56.3916 570.383Z"/>
	<path fill="#FCED70" transform="scale(1.46484 1.46484)" d="M57.2267 560.548C61.2955 531.03 67.6596 502.807 77.9308 474.79Q79.7952 469.818 81.8342 464.915Q83.8731 460.012 86.0841 455.185Q88.2951 450.357 90.6754 445.61Q93.0557 440.864 95.6023 436.204Q98.1488 431.545 100.859 426.978Q103.568 422.412 106.438 417.944Q109.307 413.476 112.333 409.112Q115.358 404.749 118.536 400.495Q121.714 396.241 125.04 392.102Q128.367 387.963 131.837 383.944Q135.308 379.925 138.918 376.031Q142.528 372.138 146.274 368.374Q150.02 364.611 153.897 360.982Q157.773 357.353 161.775 353.863Q165.778 350.374 169.901 347.028Q174.024 343.682 178.263 340.484C189.02 332.343 200.465 324.335 212.732 318.648C210.115 324.698 187.809 344.234 181.641 350.832C173.949 359.06 166.616 367.777 159.495 376.504C122.675 421.635 93.2711 468.498 75.279 524.214Q70.5305 538.984 66.762 554.033C64.9913 561.211 63.7161 568.79 61.3088 575.774L60.7402 575.531C60.5425 572.387 61.9435 565.265 60.9162 563.097C60.1605 561.502 58.7155 561.203 57.2267 560.548Z"/>
	<defs>
		<linearGradient id="gradient_8" gradientUnits="userSpaceOnUse" x1="81.936729" y1="729.39093" x2="241.78198" y2="610.51172">
			<stop offset="0" stop-color="#CC3F1E"/>
			<stop offset="1" stop-color="#F26129"/>
		</linearGradient>
	</defs>
	<path fill="url(#gradient_8)" transform="scale(1.46484 1.46484)" d="M143.233 470.089L143.154 470.747C142.041 479.579 139.856 488.385 138.008 497.093Q133.471 517.48 130.535 538.159C119.539 621.298 126.603 714.763 158.853 792.628C165.142 807.813 172.055 822.863 180.347 837.071C184.477 844.145 191.799 853.573 194.827 860.583C177.197 853.223 151.038 821.367 138.615 806.379C97.6061 756.902 75.489 692.559 67.3194 629.389C66.3588 621.962 63.5934 603.331 64.2491 596.369L64.7835 596.394C65.8207 597.889 65.689 603.433 65.9462 605.516C72.1696 655.922 89.7538 721.944 131.684 754.612C129.357 747.159 126.763 739.753 124.654 732.236Q121.892 722.437 119.664 712.502Q117.437 702.567 115.752 692.526Q114.067 682.485 112.929 672.367Q111.791 662.25 111.203 652.085C108.541 601.076 116.177 551.729 130.063 502.741C132.81 493.051 136.597 477.458 143.233 470.089Z"/>
	<path fill="#FDA619" transform="scale(1.46484 1.46484)" d="M775.592 301.656C788.11 306.954 800.737 312.318 812.622 318.945C876.958 354.821 920.967 410.031 948.332 477.67C952.549 488.094 959.607 508.647 960.423 519.368C964.763 532.764 966.384 547.6 967.8 561.569C974.444 627.089 963.602 696.174 933.537 755.022C912.959 795.298 873.756 846.953 829.092 861.362Q827.338 861.935 825.558 862.423C827.588 858.578 830.017 853.623 833.506 850.879C843.299 832.697 854.228 815.484 862.542 796.501C896.161 719.742 903.777 629.692 893.641 547.183C893.324 544.605 892.855 536.336 891.157 535.012C886.728 521.796 889.016 495.407 882.39 485.56L881.845 483.809C881.268 475.69 876.466 460.829 874.119 452.334C863.248 412.992 846.391 376.243 820.532 344.444C813.664 335.998 805.92 328.171 798.579 320.133C790.597 314.392 783.098 307.998 775.592 301.656Z"/>
	<path fill="#FCED70" transform="scale(1.46484 1.46484)" d="M775.592 301.656C788.11 306.954 800.737 312.318 812.622 318.945C876.958 354.821 920.967 410.031 948.332 477.67C952.549 488.094 959.607 508.647 960.423 519.368C959.797 522.01 960.236 525.326 960.478 528.01C961.082 534.697 962.178 541.382 962.403 548.096C962.768 558.995 962.132 569.925 962.432 580.838C958.809 569.711 957.718 557.025 954.814 545.5Q951.896 533.671 948.316 522.025Q944.737 510.379 940.506 498.954Q936.276 487.528 931.409 476.359Q926.542 465.189 921.054 454.312Q918.781 449.93 916.388 445.612Q913.995 441.294 911.486 437.043Q908.976 432.792 906.35 428.612Q903.725 424.431 900.986 420.324Q898.248 416.217 895.398 412.186Q892.548 408.155 889.588 404.204Q886.629 400.253 883.563 396.384Q880.496 392.515 877.325 388.732Q874.154 384.949 870.88 381.254Q867.607 377.558 864.234 373.954Q860.86 370.35 857.389 366.84Q853.919 363.329 850.353 359.915Q846.788 356.501 843.13 353.186Q839.472 349.87 835.725 346.656Q831.978 343.442 828.145 340.332Q824.311 337.222 820.394 334.218C814.004 329.407 806.223 322.589 798.579 320.133C790.597 314.392 783.098 307.998 775.592 301.656Z"/>
	<path fill="#CE461D" transform="scale(1.46484 1.46484)" d="M881.845 483.809C882.3 484.018 882.82 484.123 883.21 484.436C885.006 485.881 892.854 505.685 894.089 509.043C899.631 524.111 902.73 541.185 905.639 556.987C915.276 609.332 917.76 665.926 905.549 718.062C902.896 729.388 899.226 740.366 895.363 751.326C901.082 745.852 906.967 740.427 911.854 734.174C937.876 700.874 950.952 654.01 956.989 612.836C957.371 610.236 958.145 594.852 958.878 593.869L958.71 594.945L959.808 595.271L959.225 595.529C958.304 678.708 924.564 771.409 864.321 830.015C856.115 837.998 844.82 848.188 833.506 850.879C843.299 832.697 854.228 815.484 862.542 796.501C896.161 719.742 903.777 629.692 893.641 547.183C893.324 544.605 892.855 536.336 891.157 535.012C886.728 521.796 889.016 495.407 882.39 485.56L881.845 483.809Z"/>
	<path fill="#FDA619" transform="scale(1.46484 1.46484)" d="M133.8 527.993C134.337 527.663 134.394 527.699 134.774 527.184C138.071 522.714 139.998 512.771 141.94 507.25Q144.666 499.52 148.012 492.037Q153.748 478.843 160.268 466.018Q166.787 453.192 174.067 440.783Q181.346 428.373 189.359 416.424Q197.372 404.474 206.089 393.029C212.149 384.979 218.377 376.37 225.523 369.264L226.397 369.32L227.27 370.86Q225.746 381.655 223.698 392.363L224.698 391.948C217.911 422.455 220.811 473.84 231.801 503.409Q234.958 512.733 238.64 521.862L236.765 521.058C235.978 522.034 236.149 522.069 236.277 523.256C236.355 523.971 236.532 524.627 236.702 525.324C237.029 526.667 237.008 527.513 236.795 528.868C245.52 550.319 258.85 572.396 276.764 587.484C279.921 602.456 281.858 617.498 285.65 632.374C287.467 639.503 292.733 647.982 293.361 654.788C249.174 634.796 207.691 598.565 178.222 560.363C169.891 549.564 162.583 538.141 155.42 526.548C158.857 541.446 160.294 556.706 163.868 571.607Q166.153 581.406 168.999 591.058Q171.844 600.71 175.241 610.182Q178.638 619.653 182.574 628.914Q186.51 638.174 190.973 647.193C195.478 656.119 201.137 664.493 205.567 673.411C205.053 673.916 204.578 674.074 204.619 674.857C205.107 684.096 236.571 727.781 243.672 736.827C247.734 742.003 252.902 746.55 256.611 751.955C256.706 754.886 260.46 758.293 262.534 760.266C266.694 764.224 289.007 781.805 289.146 785.795C289.184 786.87 288.991 787.644 288.626 788.66C287.304 788.712 285.576 787.07 284.181 786.589C268.633 774.607 253.862 759.09 241.139 744.136C236.584 738.781 232.339 733.191 227.726 727.874C225.336 727.606 222.607 723.214 221.062 721.307C221.896 723.599 223.309 725.422 223.286 727.944C229.285 738.375 238.16 748.075 245.598 757.538C256.835 767.444 266.226 780.804 277.305 791.354Q291.631 804.758 307.197 816.7C312.691 820.936 318.51 824.837 323.813 829.3C332.771 857.261 344.576 882.344 361.521 906.416C367.265 914.575 373.809 922.129 379.574 930.254L384.639 935.525Q374.826 935.467 365.051 934.607Q355.275 933.746 345.603 932.089C287.655 922.439 238.549 887.718 204.814 840.342C151.944 766.094 129.427 675.89 130.187 585.441C130.35 566.079 130.593 547.139 133.8 527.993Z"/>
	<path transform="scale(1.46484 1.46484)" d="M202.076 694.654C206.424 699.121 209.968 704.518 213.676 709.521Q220.558 718.807 227.726 727.874C225.336 727.606 222.607 723.214 221.062 721.307C221.896 723.599 223.309 725.422 223.286 727.944C215.427 717.436 208.765 705.925 202.076 694.654Z"/>
	<path fill="#212113" transform="scale(1.46484 1.46484)" d="M231.801 503.409Q234.958 512.733 238.64 521.862L236.765 521.058C235.978 522.034 236.149 522.069 236.277 523.256C236.355 523.971 236.532 524.627 236.702 525.324C237.029 526.667 237.008 527.513 236.795 528.868C233.302 522.332 230.551 515.104 228.7 507.931C229.246 507.005 229.149 506.444 229.439 505.451C229.869 503.983 230.488 503.993 231.801 503.409Z"/>
	<path transform="scale(1.46484 1.46484)" d="M224.698 391.948C217.911 422.455 220.811 473.84 231.801 503.409C230.488 503.993 229.869 503.983 229.439 505.451C229.149 506.444 229.246 507.005 228.7 507.931C226.234 501.457 224.906 493.92 223.667 487.105C218.009 455.981 217.444 423.419 223.698 392.363L224.698 391.948Z"/>
	<path fill="#CE461D" transform="scale(1.46484 1.46484)" d="M379.574 930.254C333.063 922.978 291.913 903.874 256.058 873.409C187.901 815.497 149.025 725.373 141.934 637.167C143.525 641.799 144.328 646.81 145.368 651.595C147.082 659.482 148.82 667.323 150.982 675.102C162.59 716.867 182.424 758.614 212.753 790.101C243.154 821.661 274.866 837.373 319.346 838.178C308.516 826.605 296.315 816.384 285.01 805.288C277.099 797.524 247.892 767.318 245.598 757.538C256.835 767.444 266.226 780.804 277.305 791.354Q291.631 804.758 307.197 816.7C312.691 820.936 318.51 824.837 323.813 829.3C332.771 857.261 344.576 882.344 361.521 906.416C367.265 914.575 373.809 922.129 379.574 930.254Z"/>
	<defs>
		<linearGradient id="gradient_9" gradientUnits="userSpaceOnUse" x1="564.8645" y1="866.69165" x2="922.52795" y2="478.29211">
			<stop offset="0" stop-color="#ED8B0D"/>
			<stop offset="1" stop-color="#FFB71D"/>
		</linearGradient>
	</defs>
	<path fill="url(#gradient_9)" transform="scale(1.46484 1.46484)" d="M798.166 367.799C798.431 365.994 798.643 364.285 799.317 362.581C832.961 397.541 857.361 436.491 872.013 482.927C876.775 498.019 879.912 516.287 885.651 530.483C884.094 520.134 880.246 510.327 879.406 499.859C880.375 500.497 880.802 500.909 881.958 501.072C883.508 500.146 883.836 499.672 884.547 498.013L883.786 496.38Q883.005 490.981 882.39 485.56C889.016 495.407 886.728 521.796 891.157 535.012C892.766 557.777 894.075 580.203 893.39 603.041C890.615 695.567 862.398 788.275 800.953 859C763.787 901.779 709.43 931.579 652.511 935.534C647.09 935.91 641.688 936.006 636.256 935.999L645.11 926.572C659.106 909.094 671.409 891.666 681.332 871.503Q686.294 861.314 690.676 850.863C692.828 845.688 696.22 833.743 699.402 829.894C703.938 824.405 713.647 818.962 719.464 814.287C729.008 806.618 738.005 798.395 747.329 790.478C755.709 780.477 765.033 771.456 773.745 761.768C790.031 743.66 810.165 717.57 821.001 695.815C807.676 712.014 795.368 728.747 781.224 744.299Q776.235 749.789 771.089 755.13Q765.942 760.472 760.641 765.66Q755.34 770.849 749.89 775.881Q744.44 780.912 738.845 785.782Q733.25 790.653 727.515 795.357Q721.78 800.061 715.91 804.596Q710.04 809.131 704.04 813.492Q698.04 817.853 691.915 822.037Q685.79 826.221 679.545 830.224Q673.3 834.227 666.941 838.046Q660.582 841.865 654.114 845.496Q647.646 849.128 641.074 852.568Q634.503 856.009 627.834 859.256Q621.165 862.503 614.403 865.554Q607.642 868.604 600.795 871.456Q593.947 874.308 587.019 876.958C585.985 873.01 589.171 867.407 586.983 863.887C585.915 862.17 584.091 862.015 582.282 861.758C586.912 848.501 591.04 835.033 595.371 821.674C599.204 809.853 603.339 798.058 606.596 786.065C607.292 783.354 608.316 780.698 609.223 778.05C620.352 795.001 630.813 812.556 641.399 829.858C653.777 825.249 665.25 818.284 676.501 811.436C713.026 789.205 745.349 763.151 774.535 731.945Q778.622 727.4 782.568 722.731Q786.514 718.062 790.315 713.275Q794.115 708.487 797.767 703.585Q801.419 698.684 804.919 693.672Q808.418 688.66 811.763 683.543Q815.107 678.427 818.292 673.209Q821.478 667.992 824.502 662.68Q827.526 657.368 830.385 651.965Q833.245 646.562 835.937 641.074Q838.629 635.586 841.151 630.018Q843.674 624.45 846.024 618.808Q848.374 613.165 850.55 607.453Q852.726 601.74 854.726 595.964Q856.726 590.187 858.547 584.352Q860.368 578.517 862.01 572.629Q863.651 566.741 865.111 560.805C869.336 543.913 871.671 526.945 874.84 509.877C846.432 570.244 795.663 615.131 739.543 649.448C738.347 646.838 741.85 624.239 742.24 619.67C743.051 610.173 743.382 600.612 743.832 591.091C757.978 578.589 770.084 564.478 779.186 547.87C803.999 502.593 806.361 447.439 801.596 397.213C800.789 388.701 800.528 375.806 798.166 367.799Z"/>
	<path fill="#FCED70" transform="scale(1.46484 1.46484)" d="M774.535 731.945L780.437 733.071C750.198 770.803 715.321 796.809 673.993 821.336C660.919 829.095 647.917 836.899 633.984 843.038Q625.177 825.721 616.996 808.1C613.602 800.805 610.605 793.034 606.596 786.065C607.292 783.354 608.316 780.698 609.223 778.05C620.352 795.001 630.813 812.556 641.399 829.858C653.777 825.249 665.25 818.284 676.501 811.436C713.026 789.205 745.349 763.151 774.535 731.945Z"/>
	<path fill="#CE461D" transform="scale(1.46484 1.46484)" d="M724.463 842.874C774.954 832.415 812.335 794.757 839.695 753.115C854.212 731.021 864.227 707.458 873.158 682.688C875.095 677.314 877.933 671.633 878.995 666.056L879.468 666.318L879.266 665.491C877.721 678.583 872.719 691.943 868.829 704.532C851.697 759.974 825.364 811.485 785.376 853.954C776.727 863.14 767.814 872.015 757.895 879.837C726.948 904.24 685.167 926.067 645.11 926.572C659.106 909.094 671.409 891.666 681.332 871.503Q686.294 861.314 690.676 850.863C692.828 845.688 696.22 833.743 699.402 829.894C703.938 824.405 713.647 818.962 719.464 814.287C729.008 806.618 738.005 798.395 747.329 790.478C742.526 808.94 731.231 825.204 724.463 842.874Z"/>
	<path fill="#FDA619" transform="scale(1.46484 1.46484)" d="M339.465 481.521C342.418 474.732 344.401 467.626 347.033 460.719C351.009 450.284 355.649 439.974 360.394 429.869C383.598 380.456 422.068 333.916 474.053 313.512C501.249 302.838 527.786 303.871 554.444 315.595C608.381 339.316 647.095 390.967 667.873 444.722Q672.134 455.7 675.492 466.988C677.141 472.43 678.406 478.762 680.98 483.824C644.535 507.895 607.97 525.647 565.927 537.825C555.657 540.799 544.575 544.172 533.891 545.164L532.439 545.58C532.837 549.867 548.908 563.835 553.013 567.279C554.887 568.852 557.36 570.923 559.638 571.825C565.801 577.676 572.772 582.428 579.837 587.102C608.214 605.872 639.844 617.359 674.22 616.534C682.221 616.342 690.109 615.335 698.021 614.214C698.023 647.548 694.749 680.085 684.269 711.898C681.821 719.328 679.269 727.345 674.343 733.523C665.318 718.368 655.825 703.454 647.244 688.044C628.605 693.694 609.974 699.422 590.932 703.585Q585.83 704.708 580.699 705.689Q575.568 706.671 570.412 707.511Q565.255 708.351 560.078 709.049Q554.901 709.746 549.706 710.301Q544.512 710.856 539.304 711.267Q534.096 711.679 528.879 711.947Q523.661 712.215 518.439 712.339Q513.216 712.464 507.992 712.444Q502.768 712.424 497.546 712.261Q492.325 712.097 487.11 711.79Q481.895 711.483 476.69 711.032Q471.485 710.582 466.295 709.988Q461.105 709.394 455.933 708.657Q450.761 707.921 445.611 707.042Q440.462 706.163 435.338 705.143Q430.215 704.123 425.121 702.962C409.528 699.399 394.033 694.563 378.786 689.732C368.285 705.461 358.567 721.316 349.244 737.762C344.675 733.06 342.662 725.586 340.59 719.501Q337.548 710.513 335.012 701.369Q332.476 692.225 330.454 682.954Q328.431 673.684 326.928 664.314Q325.425 654.945 324.446 645.507C323.476 636.428 323.834 621.089 321.756 613.218C348.085 619.349 377.71 618.036 403.046 608.32C406.876 607.607 411.015 605.608 414.59 604.006C430.923 596.687 446.154 587.354 459.43 575.293C459.586 575.248 459.753 575.231 459.898 575.159C467.723 571.271 482.034 556.577 484.905 548.214C484.143 546.09 475.092 545.336 472.78 544.91C463.996 543.291 455.084 540.022 446.637 537.085C408.333 523.762 372.736 504.614 339.465 481.521Z"/>
	<path fill="#041D29" transform="scale(1.46484 1.46484)" d="M511.628 576.577C516.734 580.96 521.011 588.452 524.997 593.979C542.866 618.749 559.337 643.362 573.56 670.468C552.779 665.308 532.389 660.263 510.843 660.016C488.343 661.252 470.703 664.804 449.145 671.13C467.267 637.753 490.056 607.699 511.628 576.577Z"/>
	<path fill="#3EEE30" transform="scale(1.46484 1.46484)" d="M511.705 582.931C516.645 587.893 520.094 595.932 523.905 601.888C536.458 621.505 548.934 640.875 560.889 660.879C545.148 656.147 529.539 653.539 513.113 653.041C496.161 653.347 480.248 656.534 463.8 660.387C478.804 634.001 495.953 608.872 511.705 582.931Z"/>
	<path fill="#041D29" transform="scale(1.46484 1.46484)" d="M511.318 586.359C511.918 586.971 511.704 586.66 512.11 587.492C517.734 599.01 525.199 609.709 531.795 620.69C537.895 630.846 543.364 641.416 548.939 651.868C537.117 650.153 526.087 647.681 514.031 647.295C501.046 647.42 488.553 648.961 475.747 651.001Q482.838 638.013 490.369 625.276C497.744 612.976 507.643 600.316 511.318 586.359Z"/>
</svg>
