<svg xmlns="http://www.w3.org/2000/svg" viewBox="0 0 64 64"><defs><style>.cls-1,.cls-4{fill:#fff;}.cls-1{opacity:0;}.cls-2{fill:#7b97a6;}.cls-3{fill:#d3dee3;}.cls-5{fill:#446273;}.cls-6{fill:#abc0c9;}</style></defs><title>Shuriken</title><g id="Layer_2" data-name="Layer 2"><g id="Layer_2-2" data-name="Layer 2"><rect class="cls-1" width="64" height="64"/><rect class="cls-2" x="22.23" y="22.23" width="19.53" height="19.53"/><path class="cls-3" d="M5,5,27.37,27.37h0A6.52,6.52,0,0,1,32,25.45v-12L7,4.61A1.84,1.84,0,0,0,5,5Z"/><path class="cls-4" d="M32,25.45a6.52,6.52,0,0,1,4.63,1.92L59,5h0A1.84,1.84,0,0,0,57,4.61L32,13.48Z"/><path class="cls-5" d="M36.63,27.37A6.52,6.52,0,0,1,38.55,32h12L59.39,7A1.84,1.84,0,0,0,59,5h0Z"/><path class="cls-2" d="M38.55,32a6.52,6.52,0,0,1-1.92,4.63h0L59,59h0A1.84,1.84,0,0,0,59.39,57L50.52,32Z"/><path class="cls-5" d="M36.63,36.63A6.52,6.52,0,0,1,32,38.55v12l25,8.87A1.84,1.84,0,0,0,59,59h0Z"/><path class="cls-3" d="M25.45,32a6.52,6.52,0,0,1,1.92-4.63L5,5H5A1.84,1.84,0,0,0,4.61,7l8.87,25Z"/><path class="cls-3" d="M27.37,36.63A6.52,6.52,0,0,1,25.45,32h-12L4.61,57A1.84,1.84,0,0,0,5,59H5Z"/><path class="cls-5" d="M32,38.55a6.52,6.52,0,0,1-4.63-1.92L5,59H5A1.84,1.84,0,0,0,7,59.39l25-8.87Z"/><path class="cls-6" d="M43.49,32l8.82-20.31L32,20.51,11.69,11.69,20.51,32,11.69,52.31,32,43.49l20.31,8.82ZM27.37,36.63a6.55,6.55,0,1,1,9.26,0A6.54,6.54,0,0,1,27.37,36.63Z"/></g></g></svg>