<svg xmlns="http://www.w3.org/2000/svg" viewBox="0 0 64 64"><defs><style>.cls-1{fill:none;}.cls-2{fill:#a06b36;}.cls-3,.cls-4{fill:#cea067;}.cls-3{opacity:0.5;}.cls-5{fill:#e7c3a4;}.cls-6{fill:#fff;}</style></defs><title>Skull</title><g id="Layer_2" data-name="Layer 2"><g id="Layer_2-2" data-name="Layer 2"><rect class="cls-1" width="64" height="64"/><rect class="cls-2" x="10.05" y="23.43" width="45.44" height="18.53"/><circle class="cls-3" cx="39.93" cy="32.09" r="6.35"/><circle class="cls-3" cx="24.07" cy="32.09" r="6.35"/><path class="cls-4" d="M32,4.84c-15.46,0-28,10.76-28,24,0,8,4.59,15.14,11.64,19.5v3.08a4.19,4.19,0,0,0,.86,2.48,5.92,5.92,0,0,0,9.16.43l.21-.24.6,1.41a5.91,5.91,0,0,0,5.43,3.63h.2a5.91,5.91,0,0,0,5.43-3.63l.6-1.41.21.24a5.92,5.92,0,0,0,9.16-.43,4.19,4.19,0,0,0,.86-2.48V48.37C55.41,44,60,36.9,60,28.87,60,15.6,47.46,4.84,32,4.84ZM25.17,38.55a8.42,8.42,0,0,1-11.89.38A8.42,8.42,0,0,1,13.66,27a8.42,8.42,0,0,1,11.89-.38A8.42,8.42,0,0,1,25.17,38.55Zm25.55.38a8.42,8.42,0,0,1-11.89-.38,8.42,8.42,0,0,1-.38-11.89A8.42,8.42,0,0,1,50.34,27,8.42,8.42,0,0,1,50.72,38.93Z"/><path class="cls-5" d="M40.83,40.07a9.28,9.28,0,0,1-2-1.52,8.42,8.42,0,0,1-.38-11.89A8.42,8.42,0,0,1,50.34,27a6.87,6.87,0,0,1,.58.63A26.16,26.16,0,0,0,53,17.47a25.33,25.33,0,0,0-.48-4.95A30.23,30.23,0,0,0,32,4.84c-15.46,0-28,10.76-28,24a22.36,22.36,0,0,0,8.09,16.89,37.23,37.23,0,0,0,7.91.85A35.61,35.61,0,0,0,40.83,40.07ZM13.28,38.93A8.42,8.42,0,0,1,13.66,27a8.42,8.42,0,0,1,11.89-.38,8.42,8.42,0,0,1-.38,11.89A8.42,8.42,0,0,1,13.28,38.93Z"/><path class="cls-6" d="M22.3,19.55h0a2,2,0,0,0,2-1.05,4.77,4.77,0,0,0-.19-5.5c-1.71-1.95-5.09-1.76-7.56.41A6.54,6.54,0,0,0,14.17,18a2,2,0,0,0,2.57,2A18.41,18.41,0,0,1,22.3,19.55Z"/><path class="cls-5" d="M51.88,25l-2.43,1.23a8.25,8.25,0,0,1,.89.79,8.56,8.56,0,0,1,1.53,10.41h0C57.29,32.05,51.88,25,51.88,25Z"/><path class="cls-4" d="M11.63,36.48a8.67,8.67,0,0,1,2-9.44,8.67,8.67,0,0,1,9.44-2c-3.67-2.24-8.07-2.16-10.85.62S9.39,32.81,11.63,36.48Z"/><path class="cls-2" d="M58.56,36.49c-7.45,8.8-12.29,10.12-12.29,10.12l2.09,1.76A24.77,24.77,0,0,0,58.56,36.49Z"/></g></g></svg>