<svg xmlns="http://www.w3.org/2000/svg" viewBox="0 0 64 64"><defs><style>.cls-1{fill:#1a1a1a;opacity:0;}.cls-2{fill:#65d666;}.cls-3{fill:#39b54a;}.cls-4{fill:#fff;}.cls-5{fill:#006837;}.cls-6{fill:#009245;}</style></defs><title>Slime Green</title><g id="Layer_2" data-name="Layer 2"><g id="Finals"><rect class="cls-1" width="64" height="64"/><path class="cls-2" d="M59.5,37c0,15.19-12.31,17.44-27.5,17.44S4.5,52.22,4.5,37,13.79,9.53,29,9.53,59.5,21.85,59.5,37Z"/><path class="cls-3" d="M47.56,38.37c0,8.59-7,9.86-15.56,9.86S16.44,47,16.44,38.37,21.7,22.81,30.29,22.81,47.56,29.78,47.56,38.37Z"/><path class="cls-4" d="M23.2,16.47c1.47,1.6-.07,4.37-2.81,6.87s-5.63,3.81-7.1,2.21-.95-5.5,1.79-8S21.74,14.87,23.2,16.47Z"/><path class="cls-5" d="M32.9,27.39c-1.69,0-3.06,3.72-3.06,7s1.37,4.72,3.06,4.72S36,37.56,36,34.34,34.59,27.39,32.9,27.39Z"/><path class="cls-5" d="M48.65,27.39c-1.69,0-3.06,3.72-3.06,7s1.37,4.72,3.06,4.72,3.06-1.5,3.06-4.72S50.34,27.39,48.65,27.39Z"/><path class="cls-6" d="M37.25,42a7.44,7.44,0,0,0,1.13,1.51c.21.22.43.43.66.64a2.58,2.58,0,0,0,1.91.66,2.61,2.61,0,0,0,1.79-.9c.19-.24.37-.49.56-.74a16.74,16.74,0,0,0,1-1.56,1.1,1.1,0,0,0-1.6-1.43,18.57,18.57,0,0,0-1.44,1.19l-.45.43-.53-.44a7.66,7.66,0,0,0-1.62-1A1.13,1.13,0,0,0,37.25,42Zm3.46-.09-.09.1S40.66,41.89,40.71,41.86Z"/></g></g></svg>