<svg xmlns="http://www.w3.org/2000/svg" viewBox="0 0 64 64"><defs><style>.cls-1{opacity:0;}.cls-2{fill:#fff;}.cls-3{fill:#737373;}.cls-4{fill:#4d4d4d;}.cls-5{fill:#fdbc0d;}.cls-6{fill:#1a1a1a;}.cls-7{fill:#37b9ff;}</style></defs><title>Sound Off </title><g id="Layer_2" data-name="Layer 2"><g id="Layer_3" data-name="Layer 3"><g class="cls-1"><rect class="cls-2" width="64" height="64"/></g><ellipse class="cls-3" cx="8.82" cy="32" rx="4.32" ry="12.1"/><polygon class="cls-3" points="24.93 54.59 12.37 40.37 12.37 23.63 24.93 9.41 24.93 54.59"/><rect class="cls-3" x="8.82" y="19.9" width="12.83" height="24.2"/><path class="cls-4" d="M24.93,54.59V39.36l-9.29-4h-11c.52,5.06,2.18,8.77,4.15,8.77h6.84Z"/><ellipse class="cls-4" cx="28.22" cy="32" rx="8.72" ry="24.41"/><ellipse class="cls-5" cx="28.22" cy="32" rx="4.46" ry="16.71"/><path class="cls-6" d="M24.08,38.25c1.64-.7,2.86-3.23,2.86-6.25s-1.22-5.55-2.86-6.25a61.2,61.2,0,0,0,0,12.5Z"/><path class="cls-7" d="M53.3,32l5.39-5.39a2.77,2.77,0,1,0-3.91-3.92l-5.4,5.4L44,22.69a2.77,2.77,0,1,0-3.91,3.92L45.47,32l-5.39,5.39A2.77,2.77,0,1,0,44,41.31l5.39-5.4,5.4,5.4a2.77,2.77,0,0,0,3.91-3.92Z"/></g></g></svg>