<svg xmlns="http://www.w3.org/2000/svg" viewBox="0 0 64 64"><defs><style>.cls-1{opacity:0;}.cls-2{fill:#fff;}.cls-3{fill:#737373;}.cls-4{fill:#4d4d4d;}.cls-5{fill:#fdbc0d;}.cls-6{fill:#1a1a1a;}.cls-7{fill:#37b9ff;}</style></defs><title>Sound </title><g id="Layer_2" data-name="Layer 2"><g id="Layer_3" data-name="Layer 3"><g class="cls-1"><rect class="cls-2" width="64" height="64"/></g><ellipse class="cls-3" cx="8.82" cy="32" rx="4.32" ry="12.1"/><polygon class="cls-3" points="24.93 54.59 12.37 40.37 12.37 23.63 24.93 9.41 24.93 54.59"/><rect class="cls-3" x="8.82" y="19.9" width="12.83" height="24.2"/><path class="cls-4" d="M24.93,54.59V39.36l-9.29-4h-11c.52,5.06,2.18,8.77,4.15,8.77h6.84Z"/><ellipse class="cls-4" cx="28.22" cy="32" rx="8.72" ry="24.41"/><ellipse class="cls-5" cx="28.22" cy="32" rx="4.46" ry="16.71"/><path class="cls-6" d="M24.08,38.25c1.64-.7,2.86-3.23,2.86-6.25s-1.22-5.55-2.86-6.25a61.2,61.2,0,0,0,0,12.5Z"/><path class="cls-7" d="M41,52.07a2.57,2.57,0,1,1,0-5.13c7.39,0,13.41-6.7,13.41-14.94S48.35,17.06,41,17.06a2.57,2.57,0,1,1,0-5.13c10.22,0,18.54,9,18.54,20.07S51.18,52.07,41,52.07Z"/><path class="cls-7" d="M43.59,41.49a2.56,2.56,0,0,1-.89-5A4.71,4.71,0,0,0,45.57,32a4.71,4.71,0,0,0-2.87-4.52,2.57,2.57,0,0,1,1.77-4.82A9.86,9.86,0,0,1,50.7,32a9.85,9.85,0,0,1-6.23,9.34A2.71,2.71,0,0,1,43.59,41.49Z"/></g></g></svg>