<svg xmlns="http://www.w3.org/2000/svg" viewBox="0 0 64 64"><defs><style>.cls-1{opacity:0;}.cls-2{fill:#fff;}.cls-3{fill:#7b97a6;}.cls-4{fill:#bdccd4;}</style></defs><title>Sword 2 Silver</title><g id="Layer_2" data-name="Layer 2"><g id="Weapons_BW" data-name="Weapons BW"><g class="cls-1"><rect class="cls-2" width="64" height="64"/></g><rect class="cls-3" x="7.85" y="44.58" width="16.42" height="6.72" transform="translate(61.31 70.49) rotate(135)"/><polygon class="cls-2" points="49.25 5.25 18.52 36.89 22.82 41.18 59.5 4.5 49.25 5.25"/><polygon class="cls-4" points="58.75 14.75 59.5 4.5 22.82 41.18 27.11 45.48 58.75 14.75"/><path class="cls-4" d="M33.86,52.22,11.78,30.14a.65.65,0,0,0-1.09.31L8.8,38.54a.63.63,0,0,0,.18.6l1.67,1.68a.66.66,0,0,0,.92,0l.92-.92L24.1,51.51l-.92.92a.66.66,0,0,0,0,.92L24.86,55a.63.63,0,0,0,.6.18l8.09-1.89A.65.65,0,0,0,33.86,52.22Z"/><path class="cls-4" d="M15.22,55.81l-7-7a.65.65,0,0,0-1,.1l-2.58,4a.65.65,0,0,0,.09.81l5.6,5.6a.65.65,0,0,0,.81.09l4-2.58A.65.65,0,0,0,15.22,55.81Z"/></g></g></svg>