<svg xmlns="http://www.w3.org/2000/svg" viewBox="0 0 128 128"><defs><style>.cls-1{fill:none;}.cls-2{fill:#009245;}.cls-3{fill:#65d666;}</style></defs><title>Upgrade </title><g id="Layer_2" data-name="Layer 2"><g id="_14-25" data-name="14-25"><rect class="cls-1" width="128" height="128"/><polygon class="cls-2" points="105.48 35.87 73.9 8 54.33 11.88 22.52 36.34 25.24 72.96 42.38 71.86 63.23 56.09 73.53 64.02 55.83 65.38 26.33 87.66 28.68 119.24 44.72 120 65.74 104.38 84.59 117.17 101.9 117.82 103.26 86.57 85.72 73.05 103.9 72.04 105.48 35.87"/><polygon class="cls-3" points="73.9 8 105.48 35.87 103.9 72.04 73.94 47.99 42.38 71.86 40.53 33.57 73.9 8"/><polygon class="cls-3" points="73.96 63.99 103.26 86.57 101.9 117.82 74 98.23 44.72 120 43.13 87.18 73.96 63.99"/></g></g></svg>