<?xml version="1.0" encoding="UTF-8"?>
<svg id="Layer_2" data-name="Layer 2" xmlns="http://www.w3.org/2000/svg" viewBox="0 0 64 64">
  <defs>
    <style>
      .cls-1 {
        fill: #fff;
      }

      .cls-2 {
        fill: #1a1a1a;
        opacity: 0;
      }
    </style>
  </defs>
  <g id="Rough">
    <g>
      <rect class="cls-2" width="64" height="64"/>
      <path class="cls-1" d="M53.72,41.29c-3.91-6.78-3.13-15.35,1.95-21.33,.41-.48,.47-1.17,.16-1.72s-.95-.84-1.57-.73c-7.72,1.41-15.53-2.19-19.45-8.97-.54-.93-.99-1.93-1.39-3.05-.21-.6-.78-1-1.41-1h0c-.63,0-1.2,.4-1.41,1-1.48,4.15-4.39,7.65-8.2,9.85-3.81,2.2-8.29,2.97-12.63,2.18-.62-.11-1.25,.18-1.57,.73-.32,.55-.26,1.24,.15,1.72,.77,.91,1.41,1.8,1.94,2.73,3.91,6.78,3.13,15.35-1.95,21.33-.41,.48-.47,1.17-.16,1.72,.32,.55,.95,.84,1.57,.73,7.72-1.41,15.53,2.19,19.45,8.97,.54,.93,.99,1.93,1.39,3.05,.21,.6,.78,1,1.41,1h0c.63,0,1.2-.4,1.41-1,1.48-4.15,4.39-7.65,8.2-9.85,3.81-2.2,8.29-2.97,12.63-2.18,.62,.12,1.25-.18,1.57-.73,.32-.55,.26-1.24-.15-1.72-.77-.91-1.41-1.8-1.94-2.73Zm-39.8-.59c2.42-5.49,2.47-11.82,.02-17.4l4.21,2.43c.35,.43,.65,.85,.9,1.28,2.06,3.57,1.69,8.05-.9,11.25l-4.22,2.44Zm19.58-18.35c1.68,1.72,3.8,2.93,6.11,3.52l-6.11,3.53v-7.05Zm-3,7.05l-6.12-3.54c1.15-.29,2.28-.72,3.32-1.32,1.04-.6,1.98-1.36,2.8-2.21v7.07Zm-7.6-.92l6.1,3.52-6.11,3.53c.65-2.29,.66-4.74,.01-7.05Zm7.6,6.13v7.05c-1.68-1.72-3.8-2.93-6.11-3.52l6.11-3.53Zm3,0l6.12,3.54c-1.15,.29-2.28,.72-3.32,1.32s-1.98,1.36-2.8,2.21v-7.07Zm1.5-2.6l6.11-3.53c-.65,2.29-.66,4.74-.01,7.05l-6.1-3.52Zm10.85,6.26c-.35-.43-.65-.85-.9-1.28-2.06-3.57-1.69-8.05,.9-11.25l4.22-2.44c-2.42,5.49-2.47,11.82-.02,17.4l-4.21-2.43Zm2.72-17.56l-4.21,2.43c-4.06,.65-8.13-1.28-10.19-4.84-.25-.43-.46-.91-.66-1.42v-4.86c3.6,4.91,9.11,8.05,15.07,8.69Zm-24.68-2.75c2.61-1.51,4.85-3.54,6.61-5.94v4.87c-.82,2.13-2.33,3.92-4.31,5.06-1.97,1.14-4.29,1.56-6.54,1.2l-4.22-2.43c2.96-.32,5.84-1.24,8.45-2.75Zm-8.48,25.36l4.23-2.44c4.06-.65,8.13,1.27,10.19,4.84,.25,.43,.46,.91,.66,1.42v4.86c-3.61-4.91-9.12-8.03-15.09-8.68Zm24.7,2.74c-2.61,1.51-4.85,3.54-6.61,5.94v-4.87c.82-2.13,2.33-3.92,4.31-5.06,1.97-1.14,4.28-1.56,6.54-1.2l4.21,2.43c-2.96,.32-5.84,1.25-8.45,2.75Z"/>
    </g>
  </g>
</svg>