<?xml version="1.0" encoding="UTF-8"?>
<svg id="Layer_2" data-name="Layer 2" xmlns="http://www.w3.org/2000/svg" viewBox="0 0 64 64">
  <defs>
    <style>
      .cls-1 {
        fill: #5242ff;
      }

      .cls-2 {
        fill: #324652;
      }

      .cls-3 {
        fill: #fdaf18;
      }

      .cls-4 {
        opacity: 0;
      }

      .cls-4, .cls-5 {
        fill: #1a1a1a;
      }

      .cls-6 {
        fill: #8175ff;
      }
    </style>
  </defs>
  <g id="Rough">
    <g>
      <rect class="cls-4" width="64" height="64"/>
      <g>
        <path class="cls-6" d="M57.9,47.28c0,7.43-11.59,12.22-25.9,12.22s-25.9-4.79-25.9-12.22,11.59-14.7,25.9-14.7,25.9,7.27,25.9,14.7Z"/>
        <path class="cls-1" d="M42.24,33.87l.11,12.29s12.78,4.05,6.51,10.61c5.53-2.13,9.03-5.42,9.03-9.5,0-5.54-6.45-10.99-15.65-13.4Z"/>
        <path class="cls-6" d="M46.02,41.04c0,4.54-6.28,7.3-14.02,7.3s-14.02-2.76-14.02-7.3c0-8.16,9.58-36.54,14.02-36.54s14.02,28.38,14.02,36.54Z"/>
        <path class="cls-2" d="M32,40.25c-6.18,0-11.42-1.76-13.29-4.77-.47,2.27-.74,4.2-.74,5.56,0,4.54,6.28,7.3,14.02,7.3s14.02-2.76,14.02-7.3c0-1.36-.27-3.3-.74-5.56-1.87,3.01-7.11,4.77-13.29,4.77Z"/>
        <path class="cls-3" d="M35.1,38.96h-6.21c-1.46,0-2.65,1.18-2.65,2.65v5.57c0,1.46,1.18,2.65,2.65,2.65h6.21c1.46,0,2.65-1.18,2.65-2.65v-5.57c0-1.46-1.18-2.65-2.65-2.65Zm-.53,7.86h-5.14v-4.86h5.14v4.86Z"/>
        <path class="cls-1" d="M45.29,35.48c-1.42-6.91-4.69-16.96-7.86-23.72,2.04,8.57,3.94,19.12,4.75,26.4,1.38-.73,2.46-1.63,3.12-2.68Z"/>
        <path class="cls-5" d="M42.17,38.16c.26,2.37,.41,4.39,.41,5.89,0,.74-.08,1.45-.23,2.11,2.28-1.25,3.67-2.99,3.67-5.12,0-1.36-.27-3.3-.74-5.56-.66,1.06-1.74,1.96-3.12,2.68Z"/>
      </g>
    </g>
  </g>
</svg>