<?xml version="1.0" encoding="UTF-8"?>
<svg id="Layer_2" data-name="Layer 2" xmlns="http://www.w3.org/2000/svg" viewBox="0 0 64 64">
  <defs>
    <style>
      .cls-1 {
        fill: #ffdfb5;
      }

      .cls-2 {
        fill: #f4c38e;
      }

      .cls-3 {
        fill: #8cc936;
      }

      .cls-4 {
        fill: #008722;
      }

      .cls-5 {
        fill: #4ea800;
      }

      .cls-6 {
        fill: #1a1a1a;
        opacity: 0;
      }

      .cls-7 {
        fill: #e62e49;
      }
    </style>
  </defs>
  <g id="Rough">
    <g>
      <rect class="cls-6" width="64" height="64"/>
      <g>
        <path class="cls-2" d="M38.8,50.07l-.52-7.02-8.18,.61,.52,7.02c-2.04,.54-3.48,2.46-3.32,4.64,.18,2.46,2.32,4.3,4.78,4.12,1.3-.1,2.43-.74,3.17-1.69,.88,.83,2.09,1.3,3.39,1.21,2.46-.18,4.3-2.32,4.12-4.78-.16-2.18-1.87-3.88-3.96-4.1Z"/>
        <path class="cls-7" d="M40.38,43.52s.74,4.33-3.05,4.48-2.9,2.48-5.19,2.48c-1.15,0-3.45-.88-3.15-4.11s11.39-2.85,11.39-2.85Z"/>
        <path class="cls-5" d="M46.35,25.7s-.81-.82-2.42-1.99l3.36-9.41-7.58-.87-3.81,5.84,.26-9.35-7.46,2.13-.81,2.91-2.97-4.71-1.67,1.17,1.7,4.77s-.05,0-.07-.01c0,0,.03,1.01-.1,2.57l-3.86,1.19,.62,1.44c1.78,4.17,.56,9.01-2.99,11.84,0,0,2.63,5.76,4.87,7.46l-1.17,3.07c-.27,.7,.04,1.48,.71,1.8,.95,.46,1.99,.7,3.05,.7h.14l2.2,.48c3.19,.7,6.51,.5,9.59-.56l1.59-.22c1.79-.25,3.49-.92,4.97-1.97l.04-.03c.63-.45,.79-1.33,.36-1.97l-1.46-2.18s4.17-6.14,2.94-14.1Z"/>
        <g>
          <g>
            <path class="cls-3" d="M29.1,27.06c-5.89-1.07-8.77,3.08-8.77,3.08l-2.01-1.64s3.27-6.62-2.67-7.67c-.51-.09-1.01,.22-1.17,.72-.44,1.43-1.54,4.43-3.59,6.91-.5,.61-.59,1.46-.21,2.15,.84,1.56,2.51,4.47,4.95,7.73,.71,.95,1.66,1.7,2.77,2.13,2.14,.82,5.98,1.59,10.82-.46,8.43-3.59,5.77-11.87-.12-12.94Z"/>
            <path class="cls-1" d="M12.59,25.98s4.07-3.09,1.9-4.43c0,0-1.38,2.44-1.9,4.43Z"/>
          </g>
          <g>
            <path class="cls-3" d="M30.94,16.74c2.46,.17,4.48-.84,4.66-2.52,.39-3.72,.38-1.6,.55-5.34,.09-2.04-1.81-4.16-4.24-4.33s-4.61,1.67-4.8,3.7c-.35,3.72-.29,1.61-.43,5.34-.06,1.69,1.81,2.97,4.27,3.15Z"/>
            <path class="cls-1" d="M27.88,11.36c.07-.98,1.67-1.2,3.62-1.07s3.51,.58,3.44,1.56-1.7,1.66-3.66,1.52-3.48-1.04-3.41-2.02Z"/>
          </g>
          <g>
            <path class="cls-3" d="M44.94,9.86c-2.17-1.17-4.43-1.08-5.29,.39-1.88,3.23-1,1.31-2.69,4.64-.92,1.82-.06,4.54,2.09,5.69s4.89,.37,5.9-1.41c1.84-3.25,.93-1.35,2.58-4.7,.75-1.52-.43-3.45-2.6-4.62Z"/>
            <path class="cls-1" d="M45.52,16.02c-.46,.86-2.02,.41-3.74-.51s-2.96-1.97-2.5-2.83,2.24-.81,3.96,.11,2.74,2.37,2.28,3.24Z"/>
          </g>
          <g>
            <path class="cls-3" d="M20.64,9.28c-2.09,.56-3.48,1.98-3.15,3.43,.74,3.2,.84,4.54,1.77,7.69,.51,1.72,2.7,2.94,4.77,2.38s3.35-2.71,2.93-4.45c-.78-3.19-.91-4.52-1.87-7.66-.44-1.42-2.35-1.95-4.44-1.39Z"/>
            <path class="cls-1" d="M25.83,17.47c.45,1.66-.75,2.59-2.41,3.04s-3.16,.24-3.6-1.42,.54-3.37,2.2-3.81,3.37,.54,3.81,2.2Z"/>
          </g>
          <g>
            <path class="cls-3" d="M52.88,22.76c-1-1.92-2.68-2.98-4.02-2.34-2.96,1.41-4.25,1.8-7.13,3.37-1.57,.86-2.29,3.26-1.31,5.17s3.36,2.7,4.97,1.91c2.95-1.44,4.22-1.86,7.08-3.47,1.3-.73,1.4-2.72,.41-4.64Z"/>
            <path class="cls-1" d="M45.99,29.58c-1.53,.79-2.69-.17-3.48-1.7s-.91-3.03,.62-3.82,3.4-.19,4.19,1.33,.19,3.4-1.33,4.19Z"/>
          </g>
        </g>
        <path class="cls-4" d="M35.48,25.88c2.84,2.83,3.65,6.9,4.11,10.72-.08,.62,.49,2.03-.4,2.15-.25,0-.46-.17-.51-.4-.62-2.98-1.32-6.29-2.49-9.08-.4-.97-.89-1.95-1.45-2.72-.35-.46,.32-1.05,.74-.66h0Z"/>
        <path class="cls-4" d="M35.95,31.54c-.24,0-.47-.11-.62-.32-.24-.34-.16-.81,.18-1.04l2.75-1.93c.34-.24,.81-.16,1.04,.18,.24,.34,.16,.81-.18,1.04l-2.75,1.93c-.13,.09-.28,.14-.43,.14Z"/>
        <path class="cls-4" d="M37.33,36.25c-.29,0-.57-.17-.69-.46-.16-.38,.01-.82,.39-.98l2.64-1.13c.38-.16,.82,.01,.98,.4,.16,.38-.01,.82-.39,.98l-2.64,1.13c-.1,.04-.2,.06-.29,.06Z"/>
      </g>
    </g>
  </g>
</svg>